<!DOCTYPE svg PUBLIC "-//W3C//DTD SVG 1.1//EN" "http://www.w3.org/Graphics/SVG/1.1/DTD/svg11.dtd">
<!-- Uploaded to: SVG Repo, www.svgrepo.com, Transformed by: SVG Repo Mixer Tools -->
<svg height="70px" width="70px" version="1.1" id="Capa_1" xmlns="http://www.w3.org/2000/svg" xmlns:xlink="http://www.w3.org/1999/xlink" viewBox="-48.7 -48.7 584.37 584.37" xml:space="preserve" fill="#000000" stroke="#000000" stroke-width="0.0048697" transform="matrix(-1, 0, 0, 1, 0, 0)rotate(0)">
<g id="SVGRepo_bgCarrier" stroke-width="0"/>
<g id="SVGRepo_tracerCarrier" stroke-linecap="round" stroke-linejoin="round" stroke="#CCCCCC" stroke-width="23.37456"> <g> <linearGradient id="SVGID_1_" gradientUnits="userSpaceOnUse" x1="367.9" y1="401.744" x2="433.0939" y2="401.744"> <stop offset="0" style="stop-color:#FF8015"/> <stop offset="0.2122" style="stop-color:#db6b0f"/> <stop offset="0.4183" style="stop-color:#EF7814"/> <stop offset="0.6218" style="stop-color:#DC6E12"/> <stop offset="0.8225" style="stop-color:#C16110"/> <stop offset="1" style="stop-color:#A2510D"/> </linearGradient> <path style="fill:url(#SVGID_1_);" d="M422.45,361.284c7.71,2.95,12.09,11.26,10.21,19.33c-6.51,27.79-25.71,52.29-31.44,59.14 c-2.86,3.43-7.5,4.62-11.55,2.97c-6.18-2.52-12.67-7.1-18.78-13.24c-1.99-2-2.99-4.62-2.99-7.25c0-2.41,0.85-4.83,2.55-6.75 c15.77-17.79,25.4-34.85,30.71-46.02c3.67-7.73,12.81-11.41,20.8-8.37L422.45,361.284z"/> <linearGradient id="SVGID_2_" gradientUnits="userSpaceOnUse" x1="403.52" y1="328.8592" x2="411.6738" y2="328.8592"> <stop offset="0" style="stop-color:#FF8015"/> <stop offset="0.2122" style="stop-color:#db6b0f"/> <stop offset="0.4183" style="stop-color:#EF7814"/> <stop offset="0.6218" style="stop-color:#DC6E12"/> <stop offset="0.8225" style="stop-color:#C16110"/> <stop offset="1" style="stop-color:#A2510D"/> </linearGradient> <path style="fill:url(#SVGID_2_);" d="M410.48,325.974c1.59,1.59,1.59,4.18,0.01,5.77c-0.77,0.77-1.8,1.19-2.89,1.19 s-2.11-0.42-2.88-1.19c-0.77-0.76-1.2-1.79-1.2-2.88s0.42-2.11,1.19-2.88c0.77-0.77,1.79-1.2,2.88-1.2h0.01 C408.69,324.784,409.71,325.204,410.48,325.974z"/> <linearGradient id="SVGID_3_" gradientUnits="userSpaceOnUse" x1="478.97" y1="310.5692" x2="439.0551" y2="310.5692"> <stop offset="0" style="stop-color:#CCCCCC"/> <stop offset="0.1098" style="stop-color:#C8C8C8"/> <stop offset="0.2249" style="stop-color:#BBBBBB"/> <stop offset="0.3425" style="stop-color:#A6A6A6"/> <stop offset="0.461" style="stop-color:#898989"/> <stop offset="0.5347" style="stop-color:#737373"/> <stop offset="0.6161" style="stop-color:#6F6F6F"/> <stop offset="0.7045" style="stop-color:#626262"/> <stop offset="0.7963" style="stop-color:#4C4C4C"/> <stop offset="0.8904" style="stop-color:#2D2D2D"/> <stop offset="0.9854" style="stop-color:#070707"/> <stop offset="1" style="stop-color:#000000"/> </linearGradient> <path style="fill:url(#SVGID_3_);" d="M476.28,316.244c-4.56-4.55-11.41-6.02-17.44-3.75l-0.37,0.14 c-3.79,1.43-6.89,4.32-8.72,8.15c-0.92,1.91-2.16,3.63-3.66,5.15c-6.53-8.83-8.64-20.24-5.8-30.73c1.65,0.72,3.18,1.67,4.58,2.85 l0.17,0.15c6.41,5.57,14.5,8.65,22.76,8.66c0.61,0,1.15,0.21,1.54,0.59l9.44,9.43c0.13,0.12,0.19,0.28,0.19,0.46 s-0.05,0.33-0.17,0.45c-0.1,0.11-0.27,0.14-0.39,0.14c-0.27,0.01-0.54-0.1-0.72-0.28L476.28,316.244z"/> <radialGradient id="SVGID_4_" cx="384.2594" cy="292.4342" r="21.6947" gradientTransform="matrix(0.6947 0.7193 -2.158 2.084 748.409 -593.4044)" gradientUnits="userSpaceOnUse"> <stop offset="0" style="stop-color:#B3B3B3"/> <stop offset="1" style="stop-color:#000000"/> </radialGradient> <path style="fill:url(#SVGID_4_);" d="M405.1,270.714c2.51,11.49-0.68,24-9.59,32.93c-6.75,6.77-15.72,10.5-25.27,10.51 c-2.61,0-5.16-0.29-7.65-0.83L405.1,270.714z"/> <linearGradient id="SVGID_5_" gradientUnits="userSpaceOnUse" x1="283.81" y1="328.1634" x2="453.4348" y2="328.1634"> <stop offset="0" style="stop-color:#CCCCCC"/> <stop offset="0.0523" style="stop-color:#C8C8C8"/> <stop offset="0.1071" style="stop-color:#BBBBBB"/> <stop offset="0.163" style="stop-color:#A6A6A6"/> <stop offset="0.2194" style="stop-color:#898989"/> <stop offset="0.2545" style="stop-color:#737373"/> <stop offset="0.3489" style="stop-color:#777777"/> <stop offset="0.4514" style="stop-color:#848484"/> <stop offset="0.5578" style="stop-color:#9A9A9A"/> <stop offset="0.6662" style="stop-color:#B8B8B8"/> <stop offset="0.7047" style="stop-color:#C5C5C5"/> <stop offset="0.7413" style="stop-color:#C0C0C0"/> <stop offset="0.7835" style="stop-color:#B2B2B2"/> <stop offset="0.8285" style="stop-color:#9B9B9B"/> <stop offset="0.8755" style="stop-color:#7B7B7B"/> <stop offset="0.924" style="stop-color:#515151"/> <stop offset="0.9731" style="stop-color:#1F1F1F"/> <stop offset="1" style="stop-color:#000000"/> </linearGradient> <path style="fill:url(#SVGID_5_);" d="M393.93,366.034c-5.08,10.7-14.32,27.05-29.47,44.15c-6.35,7.17-6.02,18.13,0.76,24.94 c3.47,3.5,7.02,6.51,10.6,9.02c3.58,2.51,7.2,4.51,10.83,5.99c2.2,0.89,4.5,1.33,6.77,1.33c5.25,0,10.38-2.32,13.94-6.57 c6.01-7.19,26.18-32.95,33.08-62.46c2.8-11.94-3.7-24.25-15.12-28.62l-0.51-0.2C412.95,349.114,399.38,354.564,393.93,366.034z M401.09,247.394l-50.39-50.26l0.93-0.93l4.2,4.19c0.75,0.75,1.77,1.17,2.83,1.17c1.07,0,2.08-0.42,2.83-1.17 c0.42-0.42,0.98-0.66,1.57-0.66c0.6,0,1.15,0.23,1.57,0.65l69.63,69.46c3.68,3.67,4.57,9.31,2.15,13.7 c-9.32,16.97-6.25,38.37,7.47,52.05l7.03,7.01c1.94,1.94,2.85,4.72,2.42,7.43c-2.84,18.11-13.18,64.46-47.53,103.77 c-4.59,5.24-11.57,7.45-18.23,5.76c-10.57-2.68-20.81-8.97-30.42-18.67c-6.58-6.64-6.97-17.46-0.9-24.63 c6.64-7.84,14.46-18.05,23.26-30.34c1.94-2.71,3.25-5.87,3.81-9.15c1.19-7.03-1.11-14.22-6.15-19.26l-93.36-93.36l5.06-5.07 l50.41,50.29c8.27,8.24,19.24,12.78,30.91,12.78c0.02,0,0.04,0,0.05,0c11.69-0.01,22.68-4.58,30.93-12.86 C418.22,292.204,418.18,264.444,401.09,247.394z M416.15,337.394c4.7-4.72,4.69-12.38-0.02-17.08c-2.28-2.28-5.31-3.53-8.53-3.53 c-0.01,0-0.01,0-0.02,0c-3.22,0-6.26,1.26-8.53,3.55c-2.28,2.28-3.53,5.32-3.53,8.54c0.01,3.23,1.27,6.26,3.55,8.54 c2.28,2.27,5.31,3.52,8.53,3.52h0.01C410.84,340.934,413.87,339.674,416.15,337.394z"/> <linearGradient id="SVGID_6_" gradientUnits="userSpaceOnUse" x1="297.69" y1="211.9292" x2="345.97" y2="211.9292"> <stop offset="0" style="stop-color:#CCCCCC"/> <stop offset="0.1335" style="stop-color:#C8C8C8"/> <stop offset="0.2735" style="stop-color:#BBBBBB"/> <stop offset="0.4166" style="stop-color:#A6A6A6"/> <stop offset="0.5618" style="stop-color:#898989"/> <stop offset="0.7086" style="stop-color:#636363"/> <stop offset="0.8545" style="stop-color:#353535"/> <stop offset="1" style="stop-color:#000000"/> </linearGradient> <path style="fill:url(#SVGID_6_);" d="M345.97,190.554l-46.22,46.3c-0.41-1.79-1.1-3.49-2.06-5.05l25.17-25.24l7.06-7.08 l12.48-12.48L345.97,190.554z"/> <linearGradient id="SVGID_7_" gradientUnits="userSpaceOnUse" x1="294.53" y1="231.6542" x2="352.14" y2="231.6542"> <stop offset="0" style="stop-color:#CCCCCC"/> <stop offset="0.1335" style="stop-color:#C8C8C8"/> <stop offset="0.2735" style="stop-color:#BBBBBB"/> <stop offset="0.4166" style="stop-color:#A6A6A6"/> <stop offset="0.5618" style="stop-color:#898989"/> <stop offset="0.7086" style="stop-color:#636363"/> <stop offset="0.8545" style="stop-color:#353535"/> <stop offset="1" style="stop-color:#000000"/> </linearGradient> <polygon style="fill:url(#SVGID_7_);" points="352.14,209.874 301.63,260.514 294.53,253.444 345.05,202.794 "/> <linearGradient id="SVGID_8_" gradientUnits="userSpaceOnUse" x1="380.6725" y1="238.2966" x2="330.0475" y2="288.9217"> <stop offset="0" style="stop-color:#CCCCCC"/> <stop offset="0.0523" style="stop-color:#C8C8C8"/> <stop offset="0.1071" style="stop-color:#BBBBBB"/> <stop offset="0.163" style="stop-color:#A6A6A6"/> <stop offset="0.2194" style="stop-color:#898989"/> <stop offset="0.2545" style="stop-color:#737373"/> <stop offset="0.3489" style="stop-color:#777777"/> <stop offset="0.4514" style="stop-color:#848484"/> <stop offset="0.5578" style="stop-color:#9A9A9A"/> <stop offset="0.6662" style="stop-color:#B8B8B8"/> <stop offset="0.7047" style="stop-color:#C5C5C5"/> <stop offset="0.7413" style="stop-color:#C0C0C0"/> <stop offset="0.7835" style="stop-color:#B2B2B2"/> <stop offset="0.8285" style="stop-color:#9B9B9B"/> <stop offset="0.8755" style="stop-color:#7B7B7B"/> <stop offset="0.924" style="stop-color:#515151"/> <stop offset="0.9731" style="stop-color:#1F1F1F"/> <stop offset="1" style="stop-color:#000000"/> </linearGradient> <path style="fill:url(#SVGID_8_);" d="M384.18,245.444l-28.19-28.11l1.81-1.81l37.64,37.54c2.8,2.79,5.03,5.93,6.71,9.28 l-47.93,48.05c-3.39-1.69-6.52-3.93-9.29-6.69l-37.64-37.54l3.57-3.57l28.18,28.11c2.53,2.53,5.86,3.79,9.18,3.79 c3.34,0,6.68-1.27,9.22-3.82c2.45-2.46,3.8-5.73,3.79-9.19c0-3.48-1.35-6.75-3.82-9.21l-28.18-28.1l8.39-8.42l28.18,28.11 c2.46,2.45,5.72,3.8,9.19,3.8c0,0,0.01,0,0.02,0c3.47,0,6.74-1.36,9.19-3.82c2.46-2.47,3.81-5.74,3.8-9.2 C388,251.174,386.64,247.904,384.18,245.444z"/> <linearGradient id="SVGID_9_" gradientUnits="userSpaceOnUse" x1="332.345" y1="272.7592" x2="339.4601" y2="265.6441"> <stop offset="0" style="stop-color:#CCCCCC"/> <stop offset="0.1098" style="stop-color:#C8C8C8"/> <stop offset="0.2249" style="stop-color:#BBBBBB"/> <stop offset="0.3425" style="stop-color:#A6A6A6"/> <stop offset="0.461" style="stop-color:#898989"/> <stop offset="0.5347" style="stop-color:#737373"/> <stop offset="0.6161" style="stop-color:#6F6F6F"/> <stop offset="0.7045" style="stop-color:#626262"/> <stop offset="0.7963" style="stop-color:#4C4C4C"/> <stop offset="0.8904" style="stop-color:#2D2D2D"/> <stop offset="0.9854" style="stop-color:#070707"/> <stop offset="1" style="stop-color:#000000"/> </linearGradient> <path style="fill:url(#SVGID_9_);" d="M353.23,281.494c0.01,1.33-0.51,2.58-1.46,3.53c-0.94,0.95-2.2,1.47-3.54,1.48 c0,0,0,0-0.01,0c-1.33,0-2.59-0.52-3.53-1.47l-28.18-28.11l7.07-7.09l28.18,28.11C352.71,278.884,353.23,280.144,353.23,281.494z"/> <linearGradient id="SVGID_10_" gradientUnits="userSpaceOnUse" x1="359.1075" y1="245.9317" x2="366.2325" y2="238.8067"> <stop offset="0" style="stop-color:#CCCCCC"/> <stop offset="0.1098" style="stop-color:#C8C8C8"/> <stop offset="0.2249" style="stop-color:#BBBBBB"/> <stop offset="0.3425" style="stop-color:#A6A6A6"/> <stop offset="0.461" style="stop-color:#898989"/> <stop offset="0.5347" style="stop-color:#737373"/> <stop offset="0.6161" style="stop-color:#6F6F6F"/> <stop offset="0.7045" style="stop-color:#626262"/> <stop offset="0.7963" style="stop-color:#4C4C4C"/> <stop offset="0.8904" style="stop-color:#2D2D2D"/> <stop offset="0.9854" style="stop-color:#070707"/> <stop offset="1" style="stop-color:#000000"/> </linearGradient> <path style="fill:url(#SVGID_10_);" d="M378.53,251.104c0.95,0.95,1.47,2.2,1.47,3.55c0,1.33-0.52,2.59-1.46,3.54 c-0.95,0.95-2.21,1.47-3.54,1.47c-0.01,0-0.01,0-0.01,0c-1.34,0-2.59-0.52-3.54-1.46l-28.18-28.11l7.08-7.1L378.53,251.104z"/> <linearGradient id="SVGID_11_" gradientUnits="userSpaceOnUse" x1="294.06" y1="215.5142" x2="291.805" y2="217.7692"> <stop offset="0" style="stop-color:#CCCCCC"/> <stop offset="0.1098" style="stop-color:#C8C8C8"/> <stop offset="0.2249" style="stop-color:#BBBBBB"/> <stop offset="0.3425" style="stop-color:#A6A6A6"/> <stop offset="0.461" style="stop-color:#898989"/> <stop offset="0.5347" style="stop-color:#737373"/> <stop offset="0.6161" style="stop-color:#6F6F6F"/> <stop offset="0.7045" style="stop-color:#626262"/> <stop offset="0.7963" style="stop-color:#4C4C4C"/> <stop offset="0.8904" style="stop-color:#2D2D2D"/> <stop offset="0.9854" style="stop-color:#070707"/> <stop offset="1" style="stop-color:#000000"/> </linearGradient> <polygon style="fill:url(#SVGID_11_);" points="297.13,218.584 294.89,220.834 288.73,214.694 290.98,212.444 "/> <linearGradient id="SVGID_12_" gradientUnits="userSpaceOnUse" x1="305.705" y1="205.0792" x2="300.315" y2="210.4692"> <stop offset="0" style="stop-color:#CCCCCC"/> <stop offset="0.1098" style="stop-color:#C8C8C8"/> <stop offset="0.2249" style="stop-color:#BBBBBB"/> <stop offset="0.3425" style="stop-color:#A6A6A6"/> <stop offset="0.461" style="stop-color:#898989"/> <stop offset="0.5347" style="stop-color:#737373"/> <stop offset="0.6161" style="stop-color:#6F6F6F"/> <stop offset="0.7045" style="stop-color:#626262"/> <stop offset="0.7963" style="stop-color:#4C4C4C"/> <stop offset="0.8904" style="stop-color:#2D2D2D"/> <stop offset="0.9854" style="stop-color:#070707"/> <stop offset="1" style="stop-color:#000000"/> </linearGradient> <polygon style="fill:url(#SVGID_12_);" points="309.38,208.754 304.01,214.134 296.64,206.794 302.01,201.414 "/> <linearGradient id="SVGID_13_" gradientUnits="userSpaceOnUse" x1="323.83" y1="186.9442" x2="311.34" y2="199.4342"> <stop offset="0" style="stop-color:#CCCCCC"/> <stop offset="0.1098" style="stop-color:#C8C8C8"/> <stop offset="0.2249" style="stop-color:#BBBBBB"/> <stop offset="0.3425" style="stop-color:#A6A6A6"/> <stop offset="0.461" style="stop-color:#898989"/> <stop offset="0.5347" style="stop-color:#737373"/> <stop offset="0.6161" style="stop-color:#6F6F6F"/> <stop offset="0.7045" style="stop-color:#626262"/> <stop offset="0.7963" style="stop-color:#4C4C4C"/> <stop offset="0.8904" style="stop-color:#2D2D2D"/> <stop offset="0.9854" style="stop-color:#070707"/> <stop offset="1" style="stop-color:#000000"/> </linearGradient> <polygon style="fill:url(#SVGID_13_);" points="327.48,190.594 315.02,203.094 307.67,195.764 320.15,183.284 "/> <linearGradient id="SVGID_14_" gradientUnits="userSpaceOnUse" x1="349.62" y1="100.0142" x2="374.355" y2="124.7492"> <stop offset="0.0127" style="stop-color:#FFFFFF"/> <stop offset="0.283" style="stop-color:#ED1C24"/> <stop offset="0.3813" style="stop-color:#E81B23"/> <stop offset="0.5003" style="stop-color:#D91A21"/> <stop offset="0.6298" style="stop-color:#C1171D"/> <stop offset="0.7669" style="stop-color:#9F1318"/> <stop offset="0.9085" style="stop-color:#730E12"/> <stop offset="1" style="stop-color:#530A0D"/> </linearGradient> <path style="fill:url(#SVGID_14_);" d="M379.7,105.354l-7.35,7.16c-0.94,0.92-1.38,2.25-1.15,3.54l1.73,10.12l-9.08-4.78 c-0.58-0.3-1.22-0.46-1.86-0.46c-0.64,0-1.28,0.16-1.86,0.46l-9.09,4.78l1.74-10.12c0.22-1.29-0.21-2.62-1.15-3.54l-7.35-7.16 l10.15-1.48c1.31-0.19,2.43-1,3.02-2.18l4.54-9.21l4.54,9.21c0.58,1.18,1.71,1.99,3.01,2.18L379.7,105.354z"/> <linearGradient id="SVGID_15_" gradientUnits="userSpaceOnUse" x1="112.62" y1="100.0142" x2="137.355" y2="124.7492"> <stop offset="0.0127" style="stop-color:#FFFFFF"/> <stop offset="0.283" style="stop-color:#ED1C24"/> <stop offset="0.3813" style="stop-color:#E81B23"/> <stop offset="0.5003" style="stop-color:#D91A21"/> <stop offset="0.6298" style="stop-color:#C1171D"/> <stop offset="0.7669" style="stop-color:#9F1318"/> <stop offset="0.9085" style="stop-color:#730E12"/> <stop offset="1" style="stop-color:#530A0D"/> </linearGradient> <path style="fill:url(#SVGID_15_);" d="M142.7,105.354l-7.35,7.16c-0.95,0.92-1.38,2.25-1.15,3.54l1.73,10.12l-9.08-4.78 c-0.58-0.3-1.22-0.46-1.86-0.46s-1.28,0.16-1.86,0.46l-9.09,4.78l1.74-10.12c0.22-1.29-0.21-2.62-1.15-3.54l-7.35-7.16l10.15-1.48 c1.31-0.19,2.43-1,3.02-2.18l4.54-9.21l4.54,9.21c0.58,1.18,1.71,1.99,3.01,2.18L142.7,105.354z"/> <linearGradient id="SVGID_16_" gradientUnits="userSpaceOnUse" x1="284.4575" y1="65.8567" x2="297.0325" y2="78.4317"> <stop offset="0" style="stop-color:#CCCCCC"/> <stop offset="0.1098" style="stop-color:#C8C8C8"/> <stop offset="0.2249" style="stop-color:#BBBBBB"/> <stop offset="0.3425" style="stop-color:#A6A6A6"/> <stop offset="0.461" style="stop-color:#898989"/> <stop offset="0.5347" style="stop-color:#737373"/> <stop offset="0.6161" style="stop-color:#6F6F6F"/> <stop offset="0.7045" style="stop-color:#626262"/> <stop offset="0.7963" style="stop-color:#4C4C4C"/> <stop offset="0.8904" style="stop-color:#2D2D2D"/> <stop offset="0.9854" style="stop-color:#070707"/> <stop offset="1" style="stop-color:#000000"/> </linearGradient> <polygon style="fill:url(#SVGID_16_);" points="319.86,30.644 332.32,43.144 261.65,113.634 249.15,101.164 "/> <linearGradient id="SVGID_17_" gradientUnits="userSpaceOnUse" x1="240.8975" y1="104.0417" x2="228.2275" y2="116.7117"> <stop offset="0" style="stop-color:#CCCCCC"/> <stop offset="0.1098" style="stop-color:#C8C8C8"/> <stop offset="0.2249" style="stop-color:#BBBBBB"/> <stop offset="0.3425" style="stop-color:#A6A6A6"/> <stop offset="0.461" style="stop-color:#898989"/> <stop offset="0.5347" style="stop-color:#737373"/> <stop offset="0.6161" style="stop-color:#6F6F6F"/> <stop offset="0.7045" style="stop-color:#626262"/> <stop offset="0.7963" style="stop-color:#4C4C4C"/> <stop offset="0.8904" style="stop-color:#2D2D2D"/> <stop offset="0.9854" style="stop-color:#070707"/> <stop offset="1" style="stop-color:#000000"/> </linearGradient> <polygon style="fill:url(#SVGID_17_);" points="314.49,177.634 302.01,190.114 154.65,43.134 167.11,30.644 "/> <linearGradient id="SVGID_18_" gradientUnits="userSpaceOnUse" x1="273.84" y1="195.3142" x2="271.56" y2="197.5942"> <stop offset="0" style="stop-color:#CCCCCC"/> <stop offset="0.1098" style="stop-color:#C8C8C8"/> <stop offset="0.2249" style="stop-color:#BBBBBB"/> <stop offset="0.3425" style="stop-color:#A6A6A6"/> <stop offset="0.461" style="stop-color:#898989"/> <stop offset="0.5347" style="stop-color:#737373"/> <stop offset="0.6161" style="stop-color:#6F6F6F"/> <stop offset="0.7045" style="stop-color:#626262"/> <stop offset="0.7963" style="stop-color:#4C4C4C"/> <stop offset="0.8904" style="stop-color:#2D2D2D"/> <stop offset="0.9854" style="stop-color:#070707"/> <stop offset="1" style="stop-color:#000000"/> </linearGradient> <polygon style="fill:url(#SVGID_18_);" points="285.32,206.794 283.07,209.044 260.08,186.114 262.33,183.864 "/> <linearGradient id="SVGID_19_" gradientUnits="userSpaceOnUse" x1="213.14" y1="195.3142" x2="215.42" y2="197.5942"> <stop offset="0" style="stop-color:#CCCCCC"/> <stop offset="0.1098" style="stop-color:#C8C8C8"/> <stop offset="0.2249" style="stop-color:#BBBBBB"/> <stop offset="0.3425" style="stop-color:#A6A6A6"/> <stop offset="0.461" style="stop-color:#898989"/> <stop offset="0.5347" style="stop-color:#737373"/> <stop offset="0.6161" style="stop-color:#6F6F6F"/> <stop offset="0.7045" style="stop-color:#626262"/> <stop offset="0.7963" style="stop-color:#4C4C4C"/> <stop offset="0.8904" style="stop-color:#2D2D2D"/> <stop offset="0.9854" style="stop-color:#070707"/> <stop offset="1" style="stop-color:#000000"/> </linearGradient> <polygon style="fill:url(#SVGID_19_);" points="226.9,186.114 203.91,209.044 201.66,206.794 224.65,183.864 "/> <linearGradient id="SVGID_20_" gradientUnits="userSpaceOnUse" x1="198.885" y1="151.2392" x2="211.435" y2="163.7892"> <stop offset="0" style="stop-color:#CCCCCC"/> <stop offset="0.1098" style="stop-color:#C8C8C8"/> <stop offset="0.2249" style="stop-color:#BBBBBB"/> <stop offset="0.3425" style="stop-color:#A6A6A6"/> <stop offset="0.461" style="stop-color:#898989"/> <stop offset="0.5347" style="stop-color:#737373"/> <stop offset="0.6161" style="stop-color:#6F6F6F"/> <stop offset="0.7045" style="stop-color:#626262"/> <stop offset="0.7963" style="stop-color:#4C4C4C"/> <stop offset="0.8904" style="stop-color:#2D2D2D"/> <stop offset="0.9854" style="stop-color:#070707"/> <stop offset="1" style="stop-color:#000000"/> </linearGradient> <polygon style="fill:url(#SVGID_20_);" points="237.83,137.394 184.97,190.104 172.49,177.634 225.33,124.924 "/> <linearGradient id="SVGID_21_" gradientUnits="userSpaceOnUse" x1="192.9125" y1="215.5117" x2="195.1675" y2="217.7667"> <stop offset="0" style="stop-color:#CCCCCC"/> <stop offset="0.1098" style="stop-color:#C8C8C8"/> <stop offset="0.2249" style="stop-color:#BBBBBB"/> <stop offset="0.3425" style="stop-color:#A6A6A6"/> <stop offset="0.461" style="stop-color:#898989"/> <stop offset="0.5347" style="stop-color:#737373"/> <stop offset="0.6161" style="stop-color:#6F6F6F"/> <stop offset="0.7045" style="stop-color:#626262"/> <stop offset="0.7963" style="stop-color:#4C4C4C"/> <stop offset="0.8904" style="stop-color:#2D2D2D"/> <stop offset="0.9854" style="stop-color:#070707"/> <stop offset="1" style="stop-color:#000000"/> </linearGradient> <polygon style="fill:url(#SVGID_21_);" points="198.24,214.694 192.09,220.834 189.84,218.584 195.99,212.444 "/> <linearGradient id="SVGID_22_" gradientUnits="userSpaceOnUse" x1="163.15" y1="186.9442" x2="175.635" y2="199.4292"> <stop offset="0" style="stop-color:#CCCCCC"/> <stop offset="0.1098" style="stop-color:#C8C8C8"/> <stop offset="0.2249" style="stop-color:#BBBBBB"/> <stop offset="0.3425" style="stop-color:#A6A6A6"/> <stop offset="0.461" style="stop-color:#898989"/> <stop offset="0.5347" style="stop-color:#737373"/> <stop offset="0.6161" style="stop-color:#6F6F6F"/> <stop offset="0.7045" style="stop-color:#626262"/> <stop offset="0.7963" style="stop-color:#4C4C4C"/> <stop offset="0.8904" style="stop-color:#2D2D2D"/> <stop offset="0.9854" style="stop-color:#070707"/> <stop offset="1" style="stop-color:#000000"/> </linearGradient> <polygon style="fill:url(#SVGID_22_);" points="179.31,195.754 171.95,203.094 162.71,193.824 162.3,193.424 159.49,190.604 166.83,183.284 "/> <linearGradient id="SVGID_23_" gradientUnits="userSpaceOnUse" x1="181.2775" y1="205.0867" x2="186.6575" y2="210.4667"> <stop offset="0" style="stop-color:#CCCCCC"/> <stop offset="0.1098" style="stop-color:#C8C8C8"/> <stop offset="0.2249" style="stop-color:#BBBBBB"/> <stop offset="0.3425" style="stop-color:#A6A6A6"/> <stop offset="0.461" style="stop-color:#898989"/> <stop offset="0.5347" style="stop-color:#737373"/> <stop offset="0.6161" style="stop-color:#6F6F6F"/> <stop offset="0.7045" style="stop-color:#626262"/> <stop offset="0.7963" style="stop-color:#4C4C4C"/> <stop offset="0.8904" style="stop-color:#2D2D2D"/> <stop offset="0.9854" style="stop-color:#070707"/> <stop offset="1" style="stop-color:#000000"/> </linearGradient> <polygon style="fill:url(#SVGID_23_);" points="190.34,206.784 182.96,214.134 177.6,208.764 184.96,201.414 "/> <linearGradient id="SVGID_24_" gradientUnits="userSpaceOnUse" x1="141.01" y1="211.9292" x2="189.29" y2="211.9292"> <stop offset="0" style="stop-color:#CCCCCC"/> <stop offset="0.1335" style="stop-color:#C8C8C8"/> <stop offset="0.2735" style="stop-color:#BBBBBB"/> <stop offset="0.4166" style="stop-color:#A6A6A6"/> <stop offset="0.5618" style="stop-color:#898989"/> <stop offset="0.7086" style="stop-color:#636363"/> <stop offset="0.8545" style="stop-color:#353535"/> <stop offset="1" style="stop-color:#000000"/> </linearGradient> <path style="fill:url(#SVGID_24_);" d="M164.11,206.564l25.18,25.24c-0.97,1.56-1.66,3.26-2.07,5.05l-46.21-46.3l3.56-3.55 l12.48,12.48l7.07,7.08H164.11z"/> <linearGradient id="SVGID_25_" gradientUnits="userSpaceOnUse" x1="134.83" y1="231.6542" x2="192.44" y2="231.6542"> <stop offset="0" style="stop-color:#CCCCCC"/> <stop offset="0.1335" style="stop-color:#C8C8C8"/> <stop offset="0.2735" style="stop-color:#BBBBBB"/> <stop offset="0.4166" style="stop-color:#A6A6A6"/> <stop offset="0.5618" style="stop-color:#898989"/> <stop offset="0.7086" style="stop-color:#636363"/> <stop offset="0.8545" style="stop-color:#353535"/> <stop offset="1" style="stop-color:#000000"/> </linearGradient> <polygon style="fill:url(#SVGID_25_);" points="141.93,202.794 192.44,253.444 185.35,260.514 134.83,209.874 "/> <linearGradient id="SVGID_26_" gradientUnits="userSpaceOnUse" x1="147.5099" y1="265.6441" x2="154.63" y2="272.7642"> <stop offset="0" style="stop-color:#CCCCCC"/> <stop offset="0.1098" style="stop-color:#C8C8C8"/> <stop offset="0.2249" style="stop-color:#BBBBBB"/> <stop offset="0.3425" style="stop-color:#A6A6A6"/> <stop offset="0.461" style="stop-color:#898989"/> <stop offset="0.5347" style="stop-color:#737373"/> <stop offset="0.6161" style="stop-color:#6F6F6F"/> <stop offset="0.7045" style="stop-color:#626262"/> <stop offset="0.7963" style="stop-color:#4C4C4C"/> <stop offset="0.8904" style="stop-color:#2D2D2D"/> <stop offset="0.9854" style="stop-color:#070707"/> <stop offset="1" style="stop-color:#000000"/> </linearGradient> <path style="fill:url(#SVGID_26_);" d="M163.39,249.834l7.08,7.09l-28.18,28.11c-1.96,1.95-5.14,1.95-7.09-0.01 c-0.94-0.95-1.46-2.2-1.46-3.55c0-1.33,0.52-2.59,1.47-3.53L163.39,249.834z"/> <linearGradient id="SVGID_27_" gradientUnits="userSpaceOnUse" x1="120.745" y1="238.8092" x2="127.865" y2="245.9292"> <stop offset="0" style="stop-color:#CCCCCC"/> <stop offset="0.1098" style="stop-color:#C8C8C8"/> <stop offset="0.2249" style="stop-color:#BBBBBB"/> <stop offset="0.3425" style="stop-color:#A6A6A6"/> <stop offset="0.461" style="stop-color:#898989"/> <stop offset="0.5347" style="stop-color:#737373"/> <stop offset="0.6161" style="stop-color:#6F6F6F"/> <stop offset="0.7045" style="stop-color:#626262"/> <stop offset="0.7963" style="stop-color:#4C4C4C"/> <stop offset="0.8904" style="stop-color:#2D2D2D"/> <stop offset="0.9854" style="stop-color:#070707"/> <stop offset="1" style="stop-color:#000000"/> </linearGradient> <path style="fill:url(#SVGID_27_);" d="M136.63,223.004l7.07,7.09l-28.18,28.11c-1.95,1.95-5.13,1.94-7.08-0.01 c-0.95-0.95-1.47-2.21-1.46-3.55c0-1.34,0.52-2.59,1.47-3.54L136.63,223.004z"/> <linearGradient id="SVGID_28_" gradientUnits="userSpaceOnUse" x1="156.9225" y1="288.9217" x2="106.2975" y2="238.2966"> <stop offset="0" style="stop-color:#CCCCCC"/> <stop offset="0.0523" style="stop-color:#C8C8C8"/> <stop offset="0.1071" style="stop-color:#BBBBBB"/> <stop offset="0.163" style="stop-color:#A6A6A6"/> <stop offset="0.2194" style="stop-color:#898989"/> <stop offset="0.2545" style="stop-color:#737373"/> <stop offset="0.3489" style="stop-color:#777777"/> <stop offset="0.4514" style="stop-color:#848484"/> <stop offset="0.5578" style="stop-color:#9A9A9A"/> <stop offset="0.6662" style="stop-color:#B8B8B8"/> <stop offset="0.7047" style="stop-color:#C5C5C5"/> <stop offset="0.7413" style="stop-color:#C0C0C0"/> <stop offset="0.7835" style="stop-color:#B2B2B2"/> <stop offset="0.8285" style="stop-color:#9B9B9B"/> <stop offset="0.8755" style="stop-color:#7B7B7B"/> <stop offset="0.924" style="stop-color:#515151"/> <stop offset="0.9731" style="stop-color:#1F1F1F"/> <stop offset="1" style="stop-color:#000000"/> </linearGradient> <path style="fill:url(#SVGID_28_);" d="M91.53,253.064l37.64-37.54l1.81,1.81l-28.18,28.11c-2.47,2.46-3.83,5.73-3.82,9.19 c-0.01,3.47,1.33,6.74,3.79,9.21c2.54,2.54,5.88,3.81,9.21,3.81c3.33,0,6.66-1.26,9.19-3.79l28.18-28.11l8.39,8.42l-28.18,28.1 c-2.46,2.46-3.82,5.73-3.82,9.19c-0.01,3.48,1.34,6.75,3.8,9.21c2.53,2.55,5.87,3.82,9.21,3.82c3.32,0,6.65-1.27,9.19-3.79 l28.18-28.11l3.56,3.57l-37.64,37.54c-2.76,2.76-5.9,5-9.29,6.69l-47.92-48.05C86.51,258.994,88.73,255.854,91.53,253.064z"/> <radialGradient id="SVGID_29_" cx="102.7176" cy="292.4342" r="21.6962" gradientTransform="matrix(-0.7071 0.7071 -2.1213 -2.1213 795.6965 840.1484)" gradientUnits="userSpaceOnUse"> <stop offset="0" style="stop-color:#B3B3B3"/> <stop offset="1" style="stop-color:#000000"/> </radialGradient> <path style="fill:url(#SVGID_29_);" d="M81.87,270.714l42.52,42.62c-2.47,0.54-5.02,0.82-7.6,0.82c-0.02,0-0.04,0-0.05,0 c-9.55-0.01-18.53-3.75-25.28-10.51C82.55,294.714,79.37,282.204,81.87,270.714z"/> <linearGradient id="SVGID_30_" gradientUnits="userSpaceOnUse" x1="8" y1="310.5642" x2="47.9205" y2="310.5642"> <stop offset="0" style="stop-color:#CCCCCC"/> <stop offset="0.1098" style="stop-color:#C8C8C8"/> <stop offset="0.2249" style="stop-color:#BBBBBB"/> <stop offset="0.3425" style="stop-color:#A6A6A6"/> <stop offset="0.461" style="stop-color:#898989"/> <stop offset="0.5347" style="stop-color:#737373"/> <stop offset="0.6161" style="stop-color:#6F6F6F"/> <stop offset="0.7045" style="stop-color:#626262"/> <stop offset="0.7963" style="stop-color:#4C4C4C"/> <stop offset="0.8904" style="stop-color:#2D2D2D"/> <stop offset="0.9854" style="stop-color:#070707"/> <stop offset="1" style="stop-color:#000000"/> </linearGradient> <path style="fill:url(#SVGID_30_);" d="M8.19,316.884l9.44-9.43c0.39-0.38,0.94-0.59,1.55-0.59c8.25-0.01,16.34-3.09,22.74-8.65 l0.18-0.15c1.4-1.19,2.93-2.14,4.59-2.86c2.83,10.49,0.73,21.9-5.8,30.72c-1.51-1.51-2.75-3.23-3.66-5.14 c-1.84-3.83-4.93-6.72-8.73-8.15l-0.37-0.14c-6.03-2.27-12.87-0.8-17.44,3.75l-1.41,1.41c-0.18,0.18-0.45,0.27-0.72,0.28 c-0.12,0-0.28-0.03-0.39-0.14c-0.11-0.12-0.17-0.27-0.17-0.45S8.06,317.004,8.19,316.884z"/> <linearGradient id="SVGID_31_" gradientUnits="userSpaceOnUse" x1="75.2987" y1="328.8604" x2="83.4513" y2="328.8604"> <stop offset="0" style="stop-color:#FF8015"/> <stop offset="0.2122" style="stop-color:#db6b0f"/> <stop offset="0.4183" style="stop-color:#EF7814"/> <stop offset="0.6218" style="stop-color:#DC6E12"/> <stop offset="0.8225" style="stop-color:#C16110"/> <stop offset="1" style="stop-color:#A2510D"/> </linearGradient> <path style="fill:url(#SVGID_31_);" d="M82.26,325.984c1.59,1.59,1.59,4.18-0.01,5.76c-0.77,0.77-1.79,1.19-2.87,1.19 c-0.01,0-0.01,0-0.01,0c-1.09,0-2.11-0.42-2.88-1.19c-1.59-1.59-1.59-4.18,0.01-5.77C78.09,324.384,80.67,324.394,82.26,325.984z"/> <linearGradient id="SVGID_32_" gradientUnits="userSpaceOnUse" x1="33.5352" y1="328.1634" x2="203.16" y2="328.1634"> <stop offset="0" style="stop-color:#CCCCCC"/> <stop offset="0.0523" style="stop-color:#C8C8C8"/> <stop offset="0.1071" style="stop-color:#BBBBBB"/> <stop offset="0.163" style="stop-color:#A6A6A6"/> <stop offset="0.2194" style="stop-color:#898989"/> <stop offset="0.2545" style="stop-color:#737373"/> <stop offset="0.3489" style="stop-color:#777777"/> <stop offset="0.4514" style="stop-color:#848484"/> <stop offset="0.5578" style="stop-color:#9A9A9A"/> <stop offset="0.6662" style="stop-color:#B8B8B8"/> <stop offset="0.7047" style="stop-color:#C5C5C5"/> <stop offset="0.7413" style="stop-color:#C0C0C0"/> <stop offset="0.7835" style="stop-color:#B2B2B2"/> <stop offset="0.8285" style="stop-color:#9B9B9B"/> <stop offset="0.8755" style="stop-color:#7B7B7B"/> <stop offset="0.924" style="stop-color:#515151"/> <stop offset="0.9731" style="stop-color:#1F1F1F"/> <stop offset="1" style="stop-color:#000000"/> </linearGradient> <path style="fill:url(#SVGID_32_);" d="M122.51,410.184c-15.14-17.1-24.38-33.45-29.47-44.15c-5.45-11.47-19.01-16.92-30.88-12.42 l-0.5,0.19c-11.42,4.38-17.93,16.69-15.13,28.63c6.91,29.51,27.07,55.27,33.09,62.46c3.56,4.26,8.69,6.57,13.93,6.57 c2.28,0,4.57-0.44,6.77-1.33c7.27-2.96,14.48-8.01,21.44-15.01C128.53,428.314,128.87,417.354,122.51,410.184z M136.27,197.134 l-50.39,50.26c-17.09,17.05-17.12,44.81-0.08,61.9c8.26,8.28,19.24,12.85,30.93,12.86c0.02,0,0.04,0,0.06,0 c11.66,0,22.64-4.54,30.9-12.78l50.42-50.29l5.05,5.07l-93.36,93.36c-5.03,5.04-7.33,12.24-6.14,19.26 c0.55,3.28,1.87,6.44,3.8,9.15c8.8,12.29,16.63,22.5,23.27,30.34c6.07,7.17,5.67,17.99-0.9,24.63 c-9.62,9.7-19.86,15.99-30.43,18.67c-6.66,1.69-13.64-0.52-18.22-5.76c-34.36-39.31-44.69-85.66-47.54-103.77 c-0.43-2.71,0.48-5.49,2.43-7.43l7.02-7.01c13.72-13.68,16.79-35.08,7.47-52.05c-2.41-4.39-1.53-10.03,2.15-13.7l69.63-69.46 c0.42-0.42,0.98-0.65,1.57-0.65c0.6,0,1.15,0.24,1.57,0.66c0.75,0.75,1.77,1.17,2.83,1.17s2.08-0.42,2.83-1.17l4.2-4.19 L136.27,197.134z M87.9,337.414c4.72-4.7,4.73-12.37,0.03-17.08c-4.71-4.72-12.37-4.73-17.08-0.02c-4.72,4.7-4.73,12.36-0.03,17.08 c2.28,2.28,5.31,3.54,8.54,3.54c0.01,0,0.01,0,0.02,0C82.6,340.934,85.62,339.684,87.9,337.414z"/> <linearGradient id="SVGID_33_" gradientUnits="userSpaceOnUse" x1="86.4757" y1="443.4586" x2="86.4757" y2="360.0342"> <stop offset="0" style="stop-color:#FF8015"/> <stop offset="0.2122" style="stop-color:#db6b0f"/> <stop offset="0.4183" style="stop-color:#EF7814"/> <stop offset="0.6218" style="stop-color:#DC6E12"/> <stop offset="0.8225" style="stop-color:#C16110"/> <stop offset="1" style="stop-color:#A2510D"/> </linearGradient> <path style="fill:url(#SVGID_33_);" d="M116.52,415.484c3.56,4.02,3.37,10.17-0.44,14c-6.11,6.15-12.6,10.72-18.78,13.24 c-4.04,1.65-8.69,0.46-11.55-2.97c-5.73-6.85-24.93-31.35-31.43-59.14c-1.89-8.07,2.5-16.38,10.2-19.34l0.48-0.18 c1.9-0.72,3.86-1.06,5.8-1.06c6.23,0,12.21,3.54,15.02,9.43C91.12,380.634,100.76,397.694,116.52,415.484z"/> <path d="M486.97,317.334c0.01,2.2-0.81,4.29-2.3,5.89c-1.57,1.7-3.74,2.66-6.1,2.71c-2.43,0.03-4.81-0.9-6.53-2.61l-1.41-1.41 c-2.35-2.34-5.86-3.1-8.97-1.93l-0.38,0.14c-1.84,0.69-3.38,2.15-4.32,4.11c-1.37,2.86-3.21,5.42-5.48,7.64l5.08,5.06 c3.75,3.75,5.5,9.11,4.68,14.35c-2.96,18.79-13.69,66.91-49.42,107.79c-5.11,5.84-12.31,9.05-19.76,9.05 c-2.15,0-4.31-0.26-6.46-0.81c-11.99-3.04-23.48-10.04-34.14-20.79c-9.47-9.57-10.04-25.13-1.32-35.43 c6.41-7.56,14.32-17.88,22.86-29.82c1.24-1.73,2.08-3.75,2.43-5.84c0.19-1.12,0.24-2.24,0.16-3.35l-3.44,1.85 c-6.33,3.42-13.16,5.09-19.91,5.09c-10.02,0-19.9-3.69-27.83-10.84c-13.27-11.96-17.44-30.37-10.63-46.89l4.63-11.23l-42.84-42.84 c-1.32-1.32-1.55-3.38-0.56-4.96l0.82-1.3c0.16-0.25,13.97-14.14,13.97-14.14c1.55-1.68,2.4-3.83,2.4-6.11 c0-2.42-0.95-4.69-2.66-6.4c-0.75-0.75-1.18-1.77-1.18-2.83s0.42-2.08,1.17-2.83l0.93-0.93l-38.86-38.77 c-1.57-1.56-1.57-4.09-0.01-5.65l7.9-7.92c0.75-0.75,1.76-1.18,2.82-1.18c0.01,0,0.01,0,0.01,0c1.06,0,2.07,0.42,2.82,1.17 l25.84,25.77l5.37-5.38l-52.86-52.72l-52.86,52.72l5.37,5.37l25.83-25.76c1.56-1.56,4.1-1.56,5.66,0.01l7.89,7.92 c0.75,0.75,1.17,1.76,1.17,2.83c0,1.06-0.42,2.07-1.17,2.82l-38.87,38.77l0.93,0.93c1.56,1.56,1.56,4.1,0,5.66 c-1.72,1.71-2.66,3.98-2.66,6.4c-0.01,2.28,0.85,4.44,2.39,6.11c0,0,13.81,13.89,13.97,14.14l0.82,1.3c1,1.58,0.77,3.64-0.55,4.96 l-42.85,42.84l4.63,11.23c6.82,16.52,2.64,34.93-10.62,46.89c-7.93,7.15-17.81,10.84-27.84,10.84c-6.75,0-13.57-1.67-19.9-5.08 l-3.44-1.86c-0.09,1.11-0.04,2.23,0.15,3.35c0.36,2.09,1.2,4.11,2.43,5.84c8.55,11.94,16.45,22.25,22.86,29.82 c8.73,10.3,8.15,25.86-1.32,35.43c-10.66,10.75-22.14,17.75-34.14,20.79c-2.14,0.55-4.31,0.81-6.45,0.81 c-7.45,0-14.65-3.21-19.77-9.05c-35.72-40.88-46.46-89-49.41-107.79c-0.83-5.24,0.92-10.6,4.68-14.35l5.08-5.06 c-2.28-2.22-4.12-4.78-5.49-7.64c-0.94-1.96-2.47-3.42-4.32-4.11l-0.37-0.14c-3.11-1.17-6.63-0.41-8.98,1.93l-1.41,1.41 c-1.71,1.71-4.1,2.64-6.52,2.61c-2.37-0.05-4.54-1.01-6.11-2.71c-1.49-1.6-2.3-3.69-2.3-5.89c0-2.31,0.9-4.49,2.54-6.12l9.45-9.42 c1.89-1.89,4.44-2.93,7.17-2.93c6.34-0.01,12.57-2.39,17.53-6.7l0.21-0.18c2.05-1.75,4.37-3.17,6.84-4.22 c-0.06-0.12-0.12-0.24-0.19-0.36c-4.12-7.5-2.68-17.05,3.51-23.23l69.63-69.45c1.93-1.93,4.5-2.99,7.22-2.99c0,0,0.01,0,0.02,0 c1.33,0.01,2.62,0.26,3.82,0.75l14.02-13.99c0.76-0.76,1.79-1.2,2.88-1.16c1.07,0.01,2.1,0.46,2.84,1.24l0.64,0.68l5.7,5.69 l65.83-65.67l-73.49-73.3c-0.75-0.75-1.17-1.76-1.18-2.82c0-1.07,0.42-2.08,1.17-2.83l18.12-18.16c1.56-1.57,4.09-1.57,5.65-0.01 l7.43,7.4l9.54-9.54c0.98-0.98,2.4-1.38,3.76-1.06c1.35,0.33,2.44,1.33,2.87,2.65l11.64,35.7l38.32,38.21l38.31-38.21l11.65-35.7 c0.43-1.32,1.51-2.32,2.87-2.65c1.35-0.32,2.77,0.08,3.76,1.06l9.54,9.55l7.42-7.41c1.56-1.56,4.1-1.55,5.66,0.01l18.11,18.16 c1.56,1.57,1.55,4.1-0.01,5.66l-73.49,73.29l65.83,65.66l6.34-6.36c0.74-0.78,1.77-1.23,2.85-1.24c1.07-0.05,2.11,0.4,2.88,1.16 l14.02,13.99c1.19-0.49,2.49-0.74,3.82-0.75h0.01c2.73,0,5.29,1.06,7.22,2.99l69.63,69.45c6.19,6.18,7.63,15.72,3.51,23.23 c-0.06,0.12-0.12,0.24-0.19,0.36c2.48,1.05,4.79,2.47,6.83,4.21l0.2,0.17c4.99,4.33,11.21,6.71,17.55,6.72 c2.74,0,5.29,1.04,7.18,2.93l9.44,9.42C486.07,312.844,486.97,315.024,486.97,317.334z M478.8,317.794 c0.12-0.12,0.17-0.27,0.17-0.45s-0.06-0.34-0.19-0.46l-9.44-9.43c-0.39-0.38-0.93-0.59-1.54-0.59c-8.26-0.01-16.35-3.09-22.76-8.66 l-0.17-0.15c-1.4-1.18-2.93-2.13-4.58-2.85c-2.84,10.49-0.73,21.9,5.8,30.73c1.5-1.52,2.74-3.24,3.66-5.15 c1.83-3.83,4.93-6.72,8.72-8.15l0.37-0.14c6.03-2.27,12.88-0.8,17.44,3.75l1.41,1.41c0.18,0.18,0.45,0.29,0.72,0.28 C478.53,317.934,478.7,317.904,478.8,317.794z M453.33,350.034c0.43-2.71-0.48-5.49-2.42-7.43l-7.03-7.01 c-13.72-13.68-16.79-35.08-7.47-52.05c2.42-4.39,1.53-10.03-2.15-13.7l-69.63-69.46c-0.42-0.42-0.97-0.65-1.57-0.65 c-0.59,0-1.15,0.24-1.57,0.66c-0.75,0.75-1.76,1.17-2.83,1.17c-1.06,0-2.08-0.42-2.83-1.17l-4.2-4.19l-0.93,0.93l50.39,50.26 c17.09,17.05,17.13,44.81,0.08,61.9c-8.25,8.28-19.24,12.85-30.93,12.86c-0.01,0-0.03,0-0.05,0c-11.67,0-22.64-4.54-30.91-12.78 l-50.41-50.29l-5.06,5.07l93.36,93.36c5.04,5.04,7.34,12.23,6.15,19.26c-0.56,3.28-1.87,6.44-3.81,9.15 c-8.8,12.29-16.62,22.5-23.26,30.34c-6.07,7.17-5.68,17.99,0.9,24.63c9.61,9.7,19.85,15.99,30.42,18.67 c6.66,1.69,13.64-0.52,18.23-5.76C440.15,414.494,450.49,368.144,453.33,350.034z M395.51,303.644c8.91-8.93,12.1-21.44,9.59-32.93 l-42.51,42.61c2.49,0.54,5.04,0.83,7.65,0.83C379.79,314.144,388.76,310.414,395.51,303.644z M354.22,310.394l47.93-48.05 c-1.68-3.35-3.91-6.49-6.71-9.28l-37.64-37.54l-1.81,1.81l28.19,28.11c2.46,2.46,3.82,5.73,3.82,9.2c0.01,3.46-1.34,6.73-3.8,9.2 c-2.45,2.46-5.72,3.82-9.19,3.82c-0.01,0-0.02,0-0.02,0c-3.47,0-6.73-1.35-9.19-3.8l-28.18-28.11l-8.39,8.42l28.18,28.1 c2.47,2.46,3.82,5.73,3.82,9.21c0.01,3.46-1.34,6.73-3.79,9.19c-2.54,2.55-5.88,3.82-9.22,3.82c-3.32,0-6.65-1.26-9.18-3.79 l-28.18-28.11l-3.57,3.57l37.64,37.54C347.7,306.464,350.83,308.704,354.22,310.394z M380,254.654c0-1.35-0.52-2.6-1.47-3.55 l-28.18-28.11l-7.08,7.1l28.18,28.11c0.95,0.94,2.2,1.46,3.54,1.46c0,0,0,0,0.01,0c1.33,0,2.59-0.52,3.54-1.47 C379.48,257.244,380,255.984,380,254.654z M368.35,366.894l4.36-2.35c-0.37-0.48-0.76-0.94-1.19-1.37l-16.29-16.29 c-1.34,4.62-4.27,8.54-8.39,11.11c-3.15,1.97-6.7,2.98-10.31,2.98c-1.55,0-3.11-0.19-4.66-0.56c-1.02-0.25-1.86-0.88-2.4-1.7 c-0.58-0.89-0.81-2.02-0.54-3.13c0.52-2.15,2.68-3.47,4.83-2.95c3.04,0.74,6.19,0.24,8.84-1.42c2.66-1.66,4.49-4.26,5.16-7.32 l0.81-3.67l-24.03-24.03l-3.36,8.15c-5.94,14.4-1.29,27.05,5.81,35.09c0.89,1.01,1.83,1.95,2.78,2.81 C338.3,369.944,352.92,375.214,368.35,366.894z M351.77,285.024c0.95-0.95,1.47-2.2,1.46-3.53c0-1.35-0.52-2.61-1.47-3.55 l-28.18-28.11l-7.07,7.09l28.18,28.11c0.94,0.95,2.2,1.47,3.53,1.47c0.01,0,0.01,0,0.01,0 C349.57,286.494,350.83,285.974,351.77,285.024z M301.63,260.514l50.51-50.64l-7.09-7.08l-50.52,50.65L301.63,260.514z M299.75,236.854l46.22-46.3l-3.57-3.55l-12.48,12.48l-7.06,7.08l-25.17,25.24C298.65,233.364,299.34,235.064,299.75,236.854z M332.32,43.144l-12.46-12.5l-70.71,70.52l12.5,12.47L332.32,43.144z M315.02,203.094l12.46-12.5l-7.33-7.31l-12.48,12.48 L315.02,203.094z M302.01,190.114l12.48-12.48L167.11,30.644l-12.46,12.49L302.01,190.114z M304.01,214.134l5.37-5.38l-7.37-7.34 l-5.37,5.38L304.01,214.134z M303.95,35.214l-4.92-4.93l-4.76,14.58L303.95,35.214z M294.89,220.834l2.24-2.25l-6.15-6.14 l-2.25,2.25L294.89,220.834z M283.07,209.044l2.25-2.25l-22.99-22.93l-2.25,2.25L283.07,209.044z M184.97,190.104l52.86-52.71 l-12.5-12.47l-52.84,52.71L184.97,190.104z M203.91,209.044l22.99-22.93l-2.25-2.25l-22.99,22.93L203.91,209.044z M203.16,264.154 l-5.05-5.07l-50.42,50.29c-8.26,8.24-19.24,12.78-30.9,12.78c-0.02,0-0.04,0-0.06,0c-11.69-0.01-22.67-4.58-30.93-12.86 c-17.04-17.09-17.01-44.85,0.08-61.9l50.39-50.26l-0.93-0.93l-4.2,4.19c-0.75,0.75-1.77,1.17-2.83,1.17s-2.08-0.42-2.83-1.17 c-0.42-0.42-0.97-0.66-1.57-0.66c-0.59,0-1.15,0.23-1.57,0.65l-69.63,69.46c-3.68,3.67-4.56,9.31-2.15,13.7 c9.32,16.97,6.25,38.37-7.47,52.05l-7.02,7.01c-1.95,1.94-2.86,4.72-2.43,7.43c2.85,18.11,13.18,64.46,47.54,103.77 c4.58,5.24,11.56,7.45,18.22,5.76c10.57-2.68,20.81-8.97,30.43-18.67c6.57-6.64,6.97-17.46,0.9-24.63 c-6.64-7.84-14.47-18.05-23.27-30.34c-1.93-2.71-3.25-5.87-3.8-9.15c-1.19-7.02,1.11-14.22,6.14-19.26L203.16,264.154z M192.09,220.834l6.15-6.14l-2.25-2.25l-6.15,6.14L192.09,220.834z M192.7,44.864l-4.76-14.58l-4.92,4.92L192.7,44.864z M192.44,253.444l-50.51-50.65l-7.1,7.08l50.52,50.64L192.44,253.444z M182.96,214.134l7.38-7.35l-5.38-5.37l-7.36,7.35 L182.96,214.134z M189.29,231.804l-25.18-25.24h0.01l-7.07-7.08l-12.48-12.48l-3.56,3.55l46.21,46.3 C187.63,235.064,188.32,233.364,189.29,231.804z M179.68,266.164l-3.56-3.57l-28.18,28.11c-2.54,2.52-5.87,3.79-9.19,3.79 c-3.34,0-6.68-1.27-9.21-3.82c-2.46-2.46-3.81-5.73-3.8-9.21c0-3.46,1.36-6.73,3.82-9.19l28.18-28.1l-8.39-8.42l-28.18,28.11 c-2.53,2.53-5.86,3.79-9.19,3.79c-3.33,0-6.67-1.27-9.21-3.81c-2.46-2.47-3.8-5.74-3.79-9.21c-0.01-3.46,1.35-6.73,3.82-9.19 l28.18-28.11l-1.81-1.81l-37.64,37.54c-2.8,2.79-5.02,5.93-6.7,9.28l47.92,48.05c3.39-1.69,6.53-3.93,9.29-6.69L179.68,266.164z M171.95,203.094l7.36-7.34l-12.48-12.47l-7.34,7.32l2.81,2.82l0.41,0.4L171.95,203.094z M170.47,256.924l-7.08-7.09l-28.18,28.11 c-0.95,0.94-1.47,2.2-1.47,3.53c0,1.35,0.52,2.6,1.46,3.55c1.95,1.96,5.13,1.96,7.09,0.01L170.47,256.924z M157.21,362.244 c8.53-7.7,15.27-21.69,8.59-37.9l-3.36-8.15l-24.03,24.03l0.8,3.67c0.67,3.06,2.5,5.66,5.16,7.32c2.66,1.66,5.8,2.16,8.84,1.42 c2.15-0.52,4.31,0.8,4.83,2.95c0.53,2.14-0.79,4.31-2.94,4.83c-1.55,0.37-3.11,0.56-4.66,0.56c-3.61,0-7.16-1.01-10.31-2.98 c-4.12-2.57-7.05-6.49-8.39-11.11l-16.28,16.29c-0.43,0.43-0.83,0.89-1.2,1.37l4.36,2.36 C134.05,375.214,148.67,369.944,157.21,362.244z M143.7,230.094l-7.07-7.09l-28.18,28.1c-0.95,0.95-1.47,2.2-1.47,3.54 c-0.01,1.34,0.51,2.6,1.46,3.55c1.95,1.95,5.13,1.96,7.08,0.01L143.7,230.094z M124.39,313.334l-42.52-42.62 c-2.5,11.49,0.68,24,9.59,32.93c6.75,6.76,15.73,10.5,25.28,10.51c0.01,0,0.03,0,0.05,0 C119.37,314.154,121.92,313.874,124.39,313.334z M40.89,325.924c6.53-8.82,8.63-20.23,5.8-30.72c-1.66,0.72-3.19,1.67-4.59,2.86 l-0.18,0.15c-6.4,5.56-14.49,8.64-22.74,8.65c-0.61,0-1.16,0.21-1.55,0.59l-9.44,9.43c-0.13,0.12-0.19,0.28-0.19,0.46 s0.06,0.33,0.17,0.45c0.11,0.11,0.27,0.14,0.39,0.14c0.27-0.01,0.54-0.1,0.72-0.28l1.41-1.41c4.57-4.55,11.41-6.02,17.44-3.75 l0.37,0.14c3.8,1.43,6.89,4.32,8.73,8.15C38.14,322.694,39.38,324.414,40.89,325.924z"/> <path d="M425.32,353.814c11.42,4.37,17.92,16.68,15.12,28.62c-6.9,29.51-27.07,55.27-33.08,62.46c-3.56,4.25-8.69,6.57-13.94,6.57 c-2.27,0-4.57-0.44-6.77-1.33c-3.63-1.48-7.25-3.48-10.83-5.99c-3.58-2.51-7.13-5.52-10.6-9.02c-6.78-6.81-7.11-17.77-0.76-24.94 c15.15-17.1,24.39-33.45,29.47-44.15c5.45-11.47,19.02-16.92,30.88-12.42L425.32,353.814z M432.66,380.614 c1.88-8.07-2.5-16.38-10.21-19.33l-0.49-0.19c-7.99-3.04-17.13,0.64-20.8,8.37c-5.31,11.17-14.94,28.23-30.71,46.02 c-1.7,1.92-2.55,4.34-2.55,6.75c0,2.63,1,5.25,2.99,7.25c6.11,6.14,12.6,10.72,18.78,13.24c4.05,1.65,8.69,0.46,11.55-2.97 C406.95,432.904,426.15,408.404,432.66,380.614z"/> <path d="M416.13,320.314c4.71,4.7,4.72,12.36,0.02,17.08c-2.28,2.28-5.31,3.54-8.54,3.54h-0.01c-3.22,0-6.25-1.25-8.53-3.52 c-2.28-2.28-3.54-5.31-3.55-8.54c0-3.22,1.25-6.26,3.53-8.54c2.27-2.29,5.31-3.55,8.53-3.55c0.01,0,0.01,0,0.02,0 C410.82,316.784,413.85,318.034,416.13,320.314z M410.49,331.744c1.58-1.59,1.58-4.18-0.01-5.77c-0.77-0.77-1.79-1.19-2.88-1.19 h-0.01c-1.09,0-2.11,0.43-2.88,1.2c-0.77,0.77-1.19,1.79-1.19,2.88s0.43,2.12,1.2,2.88c0.77,0.77,1.79,1.19,2.88,1.19 S409.72,332.514,410.49,331.744z"/> <path d="M392.1,101.324c0.47,1.45,0.07,3.04-1.02,4.1l-11.64,11.35l2.75,16.03c0.25,1.5-0.36,3.02-1.59,3.92 c-0.7,0.5-1.53,0.76-2.36,0.76c-0.63,0-1.27-0.15-1.86-0.46l-14.39-7.57l-14.4,7.57c-1.35,0.71-2.98,0.59-4.21-0.3 c-1.23-0.9-1.85-2.42-1.59-3.92l2.75-16.03l-11.65-11.35c-1.09-1.06-1.48-2.65-1.01-4.1s1.72-2.5,3.23-2.72l16.09-2.34l7.2-14.59 c0.67-1.36,2.06-2.23,3.59-2.23c1.52,0,2.91,0.87,3.58,2.23l7.2,14.59l16.1,2.34C390.37,98.824,391.63,99.874,392.1,101.324z M372.35,112.514l7.35-7.16l-10.16-1.48c-1.3-0.19-2.43-1-3.01-2.18l-4.54-9.21l-4.54,9.21c-0.59,1.18-1.71,1.99-3.02,2.18 l-10.15,1.48l7.35,7.16c0.94,0.92,1.37,2.25,1.15,3.54l-1.74,10.12l9.09-4.78c0.58-0.3,1.22-0.46,1.86-0.46 c0.64,0,1.28,0.16,1.86,0.46l9.08,4.78l-1.73-10.12C370.97,114.764,371.41,113.434,372.35,112.514z"/> <path d="M155.1,101.324c0.47,1.45,0.07,3.04-1.02,4.1l-11.64,11.35l2.75,16.03c0.25,1.5-0.36,3.02-1.6,3.92 c-0.69,0.5-1.52,0.76-2.35,0.76c-0.63,0-1.27-0.15-1.86-0.46l-14.39-7.57l-14.4,7.57c-1.35,0.71-2.98,0.59-4.21-0.3 c-1.23-0.9-1.85-2.42-1.59-3.92l2.75-16.03l-11.65-11.35c-1.09-1.06-1.48-2.65-1.01-4.1c0.47-1.45,1.72-2.5,3.23-2.72l16.09-2.34 l7.2-14.59c0.67-1.36,2.06-2.23,3.59-2.23c1.52,0,2.91,0.87,3.58,2.23l7.2,14.59l16.1,2.34 C153.37,98.824,154.63,99.874,155.1,101.324z M135.35,112.514l7.35-7.16l-10.16-1.48c-1.3-0.19-2.43-1-3.01-2.18l-4.54-9.21 l-4.54,9.21c-0.59,1.18-1.71,1.99-3.02,2.18l-10.15,1.48l7.35,7.16c0.94,0.92,1.37,2.25,1.15,3.54l-1.74,10.12l9.09-4.78 c0.58-0.3,1.22-0.46,1.86-0.46s1.28,0.16,1.86,0.46l9.08,4.78l-1.73-10.12C133.97,114.764,134.4,113.434,135.35,112.514z"/> <path d="M122.51,410.184c6.36,7.17,6.02,18.13-0.75,24.94c-6.96,7-14.17,12.05-21.44,15.01c-2.2,0.89-4.49,1.33-6.77,1.33 c-5.24,0-10.37-2.31-13.93-6.57c-6.02-7.19-26.18-32.95-33.09-62.46c-2.8-11.94,3.71-24.25,15.13-28.63l0.5-0.19 c11.87-4.5,25.43,0.95,30.88,12.42C98.13,376.734,107.37,393.084,122.51,410.184z M116.08,429.484c3.81-3.83,4-9.98,0.44-14 c-15.76-17.79-25.4-34.85-30.7-46.02c-2.81-5.89-8.79-9.43-15.02-9.43c-1.94,0-3.9,0.34-5.8,1.06l-0.48,0.18 c-7.7,2.96-12.09,11.27-10.2,19.34c6.5,27.79,25.7,52.29,31.43,59.14c2.86,3.43,7.51,4.62,11.55,2.97 C103.48,440.204,109.97,435.634,116.08,429.484z"/> <path d="M87.93,320.334c4.7,4.71,4.69,12.38-0.03,17.08c-2.28,2.27-5.3,3.52-8.52,3.52c-0.01,0-0.01,0-0.02,0 c-3.23,0-6.26-1.26-8.54-3.54c-4.7-4.72-4.69-12.38,0.03-17.08C75.56,315.604,83.22,315.614,87.93,320.334z M82.25,331.744 c1.6-1.58,1.6-4.17,0.01-5.76c-1.59-1.59-4.17-1.6-5.76-0.01c-1.6,1.59-1.6,4.18-0.01,5.77c0.77,0.77,1.79,1.19,2.88,1.19 c0,0,0,0,0.01,0C80.46,332.934,81.48,332.514,82.25,331.744z"/> </g> </g>
<g id="SVGRepo_iconCarrier"> <g> <linearGradient id="SVGID_1_" gradientUnits="userSpaceOnUse" x1="367.9" y1="401.744" x2="433.0939" y2="401.744"> <stop offset="0" style="stop-color:#FF8015"/> <stop offset="0.2122" style="stop-color:#db6b0f"/> <stop offset="0.4183" style="stop-color:#EF7814"/> <stop offset="0.6218" style="stop-color:#DC6E12"/> <stop offset="0.8225" style="stop-color:#C16110"/> <stop offset="1" style="stop-color:#A2510D"/> </linearGradient> <path style="fill:url(#SVGID_1_);" d="M422.45,361.284c7.71,2.95,12.09,11.26,10.21,19.33c-6.51,27.79-25.71,52.29-31.44,59.14 c-2.86,3.43-7.5,4.62-11.55,2.97c-6.18-2.52-12.67-7.1-18.78-13.24c-1.99-2-2.99-4.62-2.99-7.25c0-2.41,0.85-4.83,2.55-6.75 c15.77-17.79,25.4-34.85,30.71-46.02c3.67-7.73,12.81-11.41,20.8-8.37L422.45,361.284z"/> <linearGradient id="SVGID_2_" gradientUnits="userSpaceOnUse" x1="403.52" y1="328.8592" x2="411.6738" y2="328.8592"> <stop offset="0" style="stop-color:#FF8015"/> <stop offset="0.2122" style="stop-color:#db6b0f"/> <stop offset="0.4183" style="stop-color:#EF7814"/> <stop offset="0.6218" style="stop-color:#DC6E12"/> <stop offset="0.8225" style="stop-color:#C16110"/> <stop offset="1" style="stop-color:#A2510D"/> </linearGradient> <path style="fill:url(#SVGID_2_);" d="M410.48,325.974c1.59,1.59,1.59,4.18,0.01,5.77c-0.77,0.77-1.8,1.19-2.89,1.19 s-2.11-0.42-2.88-1.19c-0.77-0.76-1.2-1.79-1.2-2.88s0.42-2.11,1.19-2.88c0.77-0.77,1.79-1.2,2.88-1.2h0.01 C408.69,324.784,409.71,325.204,410.48,325.974z"/> <linearGradient id="SVGID_3_" gradientUnits="userSpaceOnUse" x1="478.97" y1="310.5692" x2="439.0551" y2="310.5692"> <stop offset="0" style="stop-color:#CCCCCC"/> <stop offset="0.1098" style="stop-color:#C8C8C8"/> <stop offset="0.2249" style="stop-color:#BBBBBB"/> <stop offset="0.3425" style="stop-color:#A6A6A6"/> <stop offset="0.461" style="stop-color:#898989"/> <stop offset="0.5347" style="stop-color:#737373"/> <stop offset="0.6161" style="stop-color:#6F6F6F"/> <stop offset="0.7045" style="stop-color:#626262"/> <stop offset="0.7963" style="stop-color:#4C4C4C"/> <stop offset="0.8904" style="stop-color:#2D2D2D"/> <stop offset="0.9854" style="stop-color:#070707"/> <stop offset="1" style="stop-color:#000000"/> </linearGradient> <path style="fill:url(#SVGID_3_);" d="M476.28,316.244c-4.56-4.55-11.41-6.02-17.44-3.75l-0.37,0.14 c-3.79,1.43-6.89,4.32-8.72,8.15c-0.92,1.91-2.16,3.63-3.66,5.15c-6.53-8.83-8.64-20.24-5.8-30.73c1.65,0.72,3.18,1.67,4.58,2.85 l0.17,0.15c6.41,5.57,14.5,8.65,22.76,8.66c0.61,0,1.15,0.21,1.54,0.59l9.44,9.43c0.13,0.12,0.19,0.28,0.19,0.46 s-0.05,0.33-0.17,0.45c-0.1,0.11-0.27,0.14-0.39,0.14c-0.27,0.01-0.54-0.1-0.72-0.28L476.28,316.244z"/> <radialGradient id="SVGID_4_" cx="384.2594" cy="292.4342" r="21.6947" gradientTransform="matrix(0.6947 0.7193 -2.158 2.084 748.409 -593.4044)" gradientUnits="userSpaceOnUse"> <stop offset="0" style="stop-color:#B3B3B3"/> <stop offset="1" style="stop-color:#000000"/> </radialGradient> <path style="fill:url(#SVGID_4_);" d="M405.1,270.714c2.51,11.49-0.68,24-9.59,32.93c-6.75,6.77-15.72,10.5-25.27,10.51 c-2.61,0-5.16-0.29-7.65-0.83L405.1,270.714z"/> <linearGradient id="SVGID_5_" gradientUnits="userSpaceOnUse" x1="283.81" y1="328.1634" x2="453.4348" y2="328.1634"> <stop offset="0" style="stop-color:#CCCCCC"/> <stop offset="0.0523" style="stop-color:#C8C8C8"/> <stop offset="0.1071" style="stop-color:#BBBBBB"/> <stop offset="0.163" style="stop-color:#A6A6A6"/> <stop offset="0.2194" style="stop-color:#898989"/> <stop offset="0.2545" style="stop-color:#737373"/> <stop offset="0.3489" style="stop-color:#777777"/> <stop offset="0.4514" style="stop-color:#848484"/> <stop offset="0.5578" style="stop-color:#9A9A9A"/> <stop offset="0.6662" style="stop-color:#B8B8B8"/> <stop offset="0.7047" style="stop-color:#C5C5C5"/> <stop offset="0.7413" style="stop-color:#C0C0C0"/> <stop offset="0.7835" style="stop-color:#B2B2B2"/> <stop offset="0.8285" style="stop-color:#9B9B9B"/> <stop offset="0.8755" style="stop-color:#7B7B7B"/> <stop offset="0.924" style="stop-color:#515151"/> <stop offset="0.9731" style="stop-color:#1F1F1F"/> <stop offset="1" style="stop-color:#000000"/> </linearGradient> <path style="fill:url(#SVGID_5_);" d="M393.93,366.034c-5.08,10.7-14.32,27.05-29.47,44.15c-6.35,7.17-6.02,18.13,0.76,24.94 c3.47,3.5,7.02,6.51,10.6,9.02c3.58,2.51,7.2,4.51,10.83,5.99c2.2,0.89,4.5,1.33,6.77,1.33c5.25,0,10.38-2.32,13.94-6.57 c6.01-7.19,26.18-32.95,33.08-62.46c2.8-11.94-3.7-24.25-15.12-28.62l-0.51-0.2C412.95,349.114,399.38,354.564,393.93,366.034z M401.09,247.394l-50.39-50.26l0.93-0.93l4.2,4.19c0.75,0.75,1.77,1.17,2.83,1.17c1.07,0,2.08-0.42,2.83-1.17 c0.42-0.42,0.98-0.66,1.57-0.66c0.6,0,1.15,0.23,1.57,0.65l69.63,69.46c3.68,3.67,4.57,9.31,2.15,13.7 c-9.32,16.97-6.25,38.37,7.47,52.05l7.03,7.01c1.94,1.94,2.85,4.72,2.42,7.43c-2.84,18.11-13.18,64.46-47.53,103.77 c-4.59,5.24-11.57,7.45-18.23,5.76c-10.57-2.68-20.81-8.97-30.42-18.67c-6.58-6.64-6.97-17.46-0.9-24.63 c6.64-7.84,14.46-18.05,23.26-30.34c1.94-2.71,3.25-5.87,3.81-9.15c1.19-7.03-1.11-14.22-6.15-19.26l-93.36-93.36l5.06-5.07 l50.41,50.29c8.27,8.24,19.24,12.78,30.91,12.78c0.02,0,0.04,0,0.05,0c11.69-0.01,22.68-4.58,30.93-12.86 C418.22,292.204,418.18,264.444,401.09,247.394z M416.15,337.394c4.7-4.72,4.69-12.38-0.02-17.08c-2.28-2.28-5.31-3.53-8.53-3.53 c-0.01,0-0.01,0-0.02,0c-3.22,0-6.26,1.26-8.53,3.55c-2.28,2.28-3.53,5.32-3.53,8.54c0.01,3.23,1.27,6.26,3.55,8.54 c2.28,2.27,5.31,3.52,8.53,3.52h0.01C410.84,340.934,413.87,339.674,416.15,337.394z"/> <linearGradient id="SVGID_6_" gradientUnits="userSpaceOnUse" x1="297.69" y1="211.9292" x2="345.97" y2="211.9292"> <stop offset="0" style="stop-color:#CCCCCC"/> <stop offset="0.1335" style="stop-color:#C8C8C8"/> <stop offset="0.2735" style="stop-color:#BBBBBB"/> <stop offset="0.4166" style="stop-color:#A6A6A6"/> <stop offset="0.5618" style="stop-color:#898989"/> <stop offset="0.7086" style="stop-color:#636363"/> <stop offset="0.8545" style="stop-color:#353535"/> <stop offset="1" style="stop-color:#000000"/> </linearGradient> <path style="fill:url(#SVGID_6_);" d="M345.97,190.554l-46.22,46.3c-0.41-1.79-1.1-3.49-2.06-5.05l25.17-25.24l7.06-7.08 l12.48-12.48L345.97,190.554z"/> <linearGradient id="SVGID_7_" gradientUnits="userSpaceOnUse" x1="294.53" y1="231.6542" x2="352.14" y2="231.6542"> <stop offset="0" style="stop-color:#CCCCCC"/> <stop offset="0.1335" style="stop-color:#C8C8C8"/> <stop offset="0.2735" style="stop-color:#BBBBBB"/> <stop offset="0.4166" style="stop-color:#A6A6A6"/> <stop offset="0.5618" style="stop-color:#898989"/> <stop offset="0.7086" style="stop-color:#636363"/> <stop offset="0.8545" style="stop-color:#353535"/> <stop offset="1" style="stop-color:#000000"/> </linearGradient> <polygon style="fill:url(#SVGID_7_);" points="352.14,209.874 301.63,260.514 294.53,253.444 345.05,202.794 "/> <linearGradient id="SVGID_8_" gradientUnits="userSpaceOnUse" x1="380.6725" y1="238.2966" x2="330.0475" y2="288.9217"> <stop offset="0" style="stop-color:#CCCCCC"/> <stop offset="0.0523" style="stop-color:#C8C8C8"/> <stop offset="0.1071" style="stop-color:#BBBBBB"/> <stop offset="0.163" style="stop-color:#A6A6A6"/> <stop offset="0.2194" style="stop-color:#898989"/> <stop offset="0.2545" style="stop-color:#737373"/> <stop offset="0.3489" style="stop-color:#777777"/> <stop offset="0.4514" style="stop-color:#848484"/> <stop offset="0.5578" style="stop-color:#9A9A9A"/> <stop offset="0.6662" style="stop-color:#B8B8B8"/> <stop offset="0.7047" style="stop-color:#C5C5C5"/> <stop offset="0.7413" style="stop-color:#C0C0C0"/> <stop offset="0.7835" style="stop-color:#B2B2B2"/> <stop offset="0.8285" style="stop-color:#9B9B9B"/> <stop offset="0.8755" style="stop-color:#7B7B7B"/> <stop offset="0.924" style="stop-color:#515151"/> <stop offset="0.9731" style="stop-color:#1F1F1F"/> <stop offset="1" style="stop-color:#000000"/> </linearGradient> <path style="fill:url(#SVGID_8_);" d="M384.18,245.444l-28.19-28.11l1.81-1.81l37.64,37.54c2.8,2.79,5.03,5.93,6.71,9.28 l-47.93,48.05c-3.39-1.69-6.52-3.93-9.29-6.69l-37.64-37.54l3.57-3.57l28.18,28.11c2.53,2.53,5.86,3.79,9.18,3.79 c3.34,0,6.68-1.27,9.22-3.82c2.45-2.46,3.8-5.73,3.79-9.19c0-3.48-1.35-6.75-3.82-9.21l-28.18-28.1l8.39-8.42l28.18,28.11 c2.46,2.45,5.72,3.8,9.19,3.8c0,0,0.01,0,0.02,0c3.47,0,6.74-1.36,9.19-3.82c2.46-2.47,3.81-5.74,3.8-9.2 C388,251.174,386.64,247.904,384.18,245.444z"/> <linearGradient id="SVGID_9_" gradientUnits="userSpaceOnUse" x1="332.345" y1="272.7592" x2="339.4601" y2="265.6441"> <stop offset="0" style="stop-color:#CCCCCC"/> <stop offset="0.1098" style="stop-color:#C8C8C8"/> <stop offset="0.2249" style="stop-color:#BBBBBB"/> <stop offset="0.3425" style="stop-color:#A6A6A6"/> <stop offset="0.461" style="stop-color:#898989"/> <stop offset="0.5347" style="stop-color:#737373"/> <stop offset="0.6161" style="stop-color:#6F6F6F"/> <stop offset="0.7045" style="stop-color:#626262"/> <stop offset="0.7963" style="stop-color:#4C4C4C"/> <stop offset="0.8904" style="stop-color:#2D2D2D"/> <stop offset="0.9854" style="stop-color:#070707"/> <stop offset="1" style="stop-color:#000000"/> </linearGradient> <path style="fill:url(#SVGID_9_);" d="M353.23,281.494c0.01,1.33-0.51,2.58-1.46,3.53c-0.94,0.95-2.2,1.47-3.54,1.48 c0,0,0,0-0.01,0c-1.33,0-2.59-0.52-3.53-1.47l-28.18-28.11l7.07-7.09l28.18,28.11C352.71,278.884,353.23,280.144,353.23,281.494z"/> <linearGradient id="SVGID_10_" gradientUnits="userSpaceOnUse" x1="359.1075" y1="245.9317" x2="366.2325" y2="238.8067"> <stop offset="0" style="stop-color:#CCCCCC"/> <stop offset="0.1098" style="stop-color:#C8C8C8"/> <stop offset="0.2249" style="stop-color:#BBBBBB"/> <stop offset="0.3425" style="stop-color:#A6A6A6"/> <stop offset="0.461" style="stop-color:#898989"/> <stop offset="0.5347" style="stop-color:#737373"/> <stop offset="0.6161" style="stop-color:#6F6F6F"/> <stop offset="0.7045" style="stop-color:#626262"/> <stop offset="0.7963" style="stop-color:#4C4C4C"/> <stop offset="0.8904" style="stop-color:#2D2D2D"/> <stop offset="0.9854" style="stop-color:#070707"/> <stop offset="1" style="stop-color:#000000"/> </linearGradient> <path style="fill:url(#SVGID_10_);" d="M378.53,251.104c0.95,0.95,1.47,2.2,1.47,3.55c0,1.33-0.52,2.59-1.46,3.54 c-0.95,0.95-2.21,1.47-3.54,1.47c-0.01,0-0.01,0-0.01,0c-1.34,0-2.59-0.52-3.54-1.46l-28.18-28.11l7.08-7.1L378.53,251.104z"/> <linearGradient id="SVGID_11_" gradientUnits="userSpaceOnUse" x1="294.06" y1="215.5142" x2="291.805" y2="217.7692"> <stop offset="0" style="stop-color:#CCCCCC"/> <stop offset="0.1098" style="stop-color:#C8C8C8"/> <stop offset="0.2249" style="stop-color:#BBBBBB"/> <stop offset="0.3425" style="stop-color:#A6A6A6"/> <stop offset="0.461" style="stop-color:#898989"/> <stop offset="0.5347" style="stop-color:#737373"/> <stop offset="0.6161" style="stop-color:#6F6F6F"/> <stop offset="0.7045" style="stop-color:#626262"/> <stop offset="0.7963" style="stop-color:#4C4C4C"/> <stop offset="0.8904" style="stop-color:#2D2D2D"/> <stop offset="0.9854" style="stop-color:#070707"/> <stop offset="1" style="stop-color:#000000"/> </linearGradient> <polygon style="fill:url(#SVGID_11_);" points="297.13,218.584 294.89,220.834 288.73,214.694 290.98,212.444 "/> <linearGradient id="SVGID_12_" gradientUnits="userSpaceOnUse" x1="305.705" y1="205.0792" x2="300.315" y2="210.4692"> <stop offset="0" style="stop-color:#CCCCCC"/> <stop offset="0.1098" style="stop-color:#C8C8C8"/> <stop offset="0.2249" style="stop-color:#BBBBBB"/> <stop offset="0.3425" style="stop-color:#A6A6A6"/> <stop offset="0.461" style="stop-color:#898989"/> <stop offset="0.5347" style="stop-color:#737373"/> <stop offset="0.6161" style="stop-color:#6F6F6F"/> <stop offset="0.7045" style="stop-color:#626262"/> <stop offset="0.7963" style="stop-color:#4C4C4C"/> <stop offset="0.8904" style="stop-color:#2D2D2D"/> <stop offset="0.9854" style="stop-color:#070707"/> <stop offset="1" style="stop-color:#000000"/> </linearGradient> <polygon style="fill:url(#SVGID_12_);" points="309.38,208.754 304.01,214.134 296.64,206.794 302.01,201.414 "/> <linearGradient id="SVGID_13_" gradientUnits="userSpaceOnUse" x1="323.83" y1="186.9442" x2="311.34" y2="199.4342"> <stop offset="0" style="stop-color:#CCCCCC"/> <stop offset="0.1098" style="stop-color:#C8C8C8"/> <stop offset="0.2249" style="stop-color:#BBBBBB"/> <stop offset="0.3425" style="stop-color:#A6A6A6"/> <stop offset="0.461" style="stop-color:#898989"/> <stop offset="0.5347" style="stop-color:#737373"/> <stop offset="0.6161" style="stop-color:#6F6F6F"/> <stop offset="0.7045" style="stop-color:#626262"/> <stop offset="0.7963" style="stop-color:#4C4C4C"/> <stop offset="0.8904" style="stop-color:#2D2D2D"/> <stop offset="0.9854" style="stop-color:#070707"/> <stop offset="1" style="stop-color:#000000"/> </linearGradient> <polygon style="fill:url(#SVGID_13_);" points="327.48,190.594 315.02,203.094 307.67,195.764 320.15,183.284 "/> <linearGradient id="SVGID_14_" gradientUnits="userSpaceOnUse" x1="349.62" y1="100.0142" x2="374.355" y2="124.7492"> <stop offset="0.0127" style="stop-color:#FFFFFF"/> <stop offset="0.283" style="stop-color:#ED1C24"/> <stop offset="0.3813" style="stop-color:#E81B23"/> <stop offset="0.5003" style="stop-color:#D91A21"/> <stop offset="0.6298" style="stop-color:#C1171D"/> <stop offset="0.7669" style="stop-color:#9F1318"/> <stop offset="0.9085" style="stop-color:#730E12"/> <stop offset="1" style="stop-color:#530A0D"/> </linearGradient> <path style="fill:url(#SVGID_14_);" d="M379.7,105.354l-7.35,7.16c-0.94,0.92-1.38,2.25-1.15,3.54l1.73,10.12l-9.08-4.78 c-0.58-0.3-1.22-0.46-1.86-0.46c-0.64,0-1.28,0.16-1.86,0.46l-9.09,4.78l1.74-10.12c0.22-1.29-0.21-2.62-1.15-3.54l-7.35-7.16 l10.15-1.48c1.31-0.19,2.43-1,3.02-2.18l4.54-9.21l4.54,9.21c0.58,1.18,1.71,1.99,3.01,2.18L379.7,105.354z"/> <linearGradient id="SVGID_15_" gradientUnits="userSpaceOnUse" x1="112.62" y1="100.0142" x2="137.355" y2="124.7492"> <stop offset="0.0127" style="stop-color:#FFFFFF"/> <stop offset="0.283" style="stop-color:#ED1C24"/> <stop offset="0.3813" style="stop-color:#E81B23"/> <stop offset="0.5003" style="stop-color:#D91A21"/> <stop offset="0.6298" style="stop-color:#C1171D"/> <stop offset="0.7669" style="stop-color:#9F1318"/> <stop offset="0.9085" style="stop-color:#730E12"/> <stop offset="1" style="stop-color:#530A0D"/> </linearGradient> <path style="fill:url(#SVGID_15_);" d="M142.7,105.354l-7.35,7.16c-0.95,0.92-1.38,2.25-1.15,3.54l1.73,10.12l-9.08-4.78 c-0.58-0.3-1.22-0.46-1.86-0.46s-1.28,0.16-1.86,0.46l-9.09,4.78l1.74-10.12c0.22-1.29-0.21-2.62-1.15-3.54l-7.35-7.16l10.15-1.48 c1.31-0.19,2.43-1,3.02-2.18l4.54-9.21l4.54,9.21c0.58,1.18,1.71,1.99,3.01,2.18L142.7,105.354z"/> <linearGradient id="SVGID_16_" gradientUnits="userSpaceOnUse" x1="284.4575" y1="65.8567" x2="297.0325" y2="78.4317"> <stop offset="0" style="stop-color:#CCCCCC"/> <stop offset="0.1098" style="stop-color:#C8C8C8"/> <stop offset="0.2249" style="stop-color:#BBBBBB"/> <stop offset="0.3425" style="stop-color:#A6A6A6"/> <stop offset="0.461" style="stop-color:#898989"/> <stop offset="0.5347" style="stop-color:#737373"/> <stop offset="0.6161" style="stop-color:#6F6F6F"/> <stop offset="0.7045" style="stop-color:#626262"/> <stop offset="0.7963" style="stop-color:#4C4C4C"/> <stop offset="0.8904" style="stop-color:#2D2D2D"/> <stop offset="0.9854" style="stop-color:#070707"/> <stop offset="1" style="stop-color:#000000"/> </linearGradient> <polygon style="fill:url(#SVGID_16_);" points="319.86,30.644 332.32,43.144 261.65,113.634 249.15,101.164 "/> <linearGradient id="SVGID_17_" gradientUnits="userSpaceOnUse" x1="240.8975" y1="104.0417" x2="228.2275" y2="116.7117"> <stop offset="0" style="stop-color:#CCCCCC"/> <stop offset="0.1098" style="stop-color:#C8C8C8"/> <stop offset="0.2249" style="stop-color:#BBBBBB"/> <stop offset="0.3425" style="stop-color:#A6A6A6"/> <stop offset="0.461" style="stop-color:#898989"/> <stop offset="0.5347" style="stop-color:#737373"/> <stop offset="0.6161" style="stop-color:#6F6F6F"/> <stop offset="0.7045" style="stop-color:#626262"/> <stop offset="0.7963" style="stop-color:#4C4C4C"/> <stop offset="0.8904" style="stop-color:#2D2D2D"/> <stop offset="0.9854" style="stop-color:#070707"/> <stop offset="1" style="stop-color:#000000"/> </linearGradient> <polygon style="fill:url(#SVGID_17_);" points="314.49,177.634 302.01,190.114 154.65,43.134 167.11,30.644 "/> <linearGradient id="SVGID_18_" gradientUnits="userSpaceOnUse" x1="273.84" y1="195.3142" x2="271.56" y2="197.5942"> <stop offset="0" style="stop-color:#CCCCCC"/> <stop offset="0.1098" style="stop-color:#C8C8C8"/> <stop offset="0.2249" style="stop-color:#BBBBBB"/> <stop offset="0.3425" style="stop-color:#A6A6A6"/> <stop offset="0.461" style="stop-color:#898989"/> <stop offset="0.5347" style="stop-color:#737373"/> <stop offset="0.6161" style="stop-color:#6F6F6F"/> <stop offset="0.7045" style="stop-color:#626262"/> <stop offset="0.7963" style="stop-color:#4C4C4C"/> <stop offset="0.8904" style="stop-color:#2D2D2D"/> <stop offset="0.9854" style="stop-color:#070707"/> <stop offset="1" style="stop-color:#000000"/> </linearGradient> <polygon style="fill:url(#SVGID_18_);" points="285.32,206.794 283.07,209.044 260.08,186.114 262.33,183.864 "/> <linearGradient id="SVGID_19_" gradientUnits="userSpaceOnUse" x1="213.14" y1="195.3142" x2="215.42" y2="197.5942"> <stop offset="0" style="stop-color:#CCCCCC"/> <stop offset="0.1098" style="stop-color:#C8C8C8"/> <stop offset="0.2249" style="stop-color:#BBBBBB"/> <stop offset="0.3425" style="stop-color:#A6A6A6"/> <stop offset="0.461" style="stop-color:#898989"/> <stop offset="0.5347" style="stop-color:#737373"/> <stop offset="0.6161" style="stop-color:#6F6F6F"/> <stop offset="0.7045" style="stop-color:#626262"/> <stop offset="0.7963" style="stop-color:#4C4C4C"/> <stop offset="0.8904" style="stop-color:#2D2D2D"/> <stop offset="0.9854" style="stop-color:#070707"/> <stop offset="1" style="stop-color:#000000"/> </linearGradient> <polygon style="fill:url(#SVGID_19_);" points="226.9,186.114 203.91,209.044 201.66,206.794 224.65,183.864 "/> <linearGradient id="SVGID_20_" gradientUnits="userSpaceOnUse" x1="198.885" y1="151.2392" x2="211.435" y2="163.7892"> <stop offset="0" style="stop-color:#CCCCCC"/> <stop offset="0.1098" style="stop-color:#C8C8C8"/> <stop offset="0.2249" style="stop-color:#BBBBBB"/> <stop offset="0.3425" style="stop-color:#A6A6A6"/> <stop offset="0.461" style="stop-color:#898989"/> <stop offset="0.5347" style="stop-color:#737373"/> <stop offset="0.6161" style="stop-color:#6F6F6F"/> <stop offset="0.7045" style="stop-color:#626262"/> <stop offset="0.7963" style="stop-color:#4C4C4C"/> <stop offset="0.8904" style="stop-color:#2D2D2D"/> <stop offset="0.9854" style="stop-color:#070707"/> <stop offset="1" style="stop-color:#000000"/> </linearGradient> <polygon style="fill:url(#SVGID_20_);" points="237.83,137.394 184.97,190.104 172.49,177.634 225.33,124.924 "/> <linearGradient id="SVGID_21_" gradientUnits="userSpaceOnUse" x1="192.9125" y1="215.5117" x2="195.1675" y2="217.7667"> <stop offset="0" style="stop-color:#CCCCCC"/> <stop offset="0.1098" style="stop-color:#C8C8C8"/> <stop offset="0.2249" style="stop-color:#BBBBBB"/> <stop offset="0.3425" style="stop-color:#A6A6A6"/> <stop offset="0.461" style="stop-color:#898989"/> <stop offset="0.5347" style="stop-color:#737373"/> <stop offset="0.6161" style="stop-color:#6F6F6F"/> <stop offset="0.7045" style="stop-color:#626262"/> <stop offset="0.7963" style="stop-color:#4C4C4C"/> <stop offset="0.8904" style="stop-color:#2D2D2D"/> <stop offset="0.9854" style="stop-color:#070707"/> <stop offset="1" style="stop-color:#000000"/> </linearGradient> <polygon style="fill:url(#SVGID_21_);" points="198.24,214.694 192.09,220.834 189.84,218.584 195.99,212.444 "/> <linearGradient id="SVGID_22_" gradientUnits="userSpaceOnUse" x1="163.15" y1="186.9442" x2="175.635" y2="199.4292"> <stop offset="0" style="stop-color:#CCCCCC"/> <stop offset="0.1098" style="stop-color:#C8C8C8"/> <stop offset="0.2249" style="stop-color:#BBBBBB"/> <stop offset="0.3425" style="stop-color:#A6A6A6"/> <stop offset="0.461" style="stop-color:#898989"/> <stop offset="0.5347" style="stop-color:#737373"/> <stop offset="0.6161" style="stop-color:#6F6F6F"/> <stop offset="0.7045" style="stop-color:#626262"/> <stop offset="0.7963" style="stop-color:#4C4C4C"/> <stop offset="0.8904" style="stop-color:#2D2D2D"/> <stop offset="0.9854" style="stop-color:#070707"/> <stop offset="1" style="stop-color:#000000"/> </linearGradient> <polygon style="fill:url(#SVGID_22_);" points="179.31,195.754 171.95,203.094 162.71,193.824 162.3,193.424 159.49,190.604 166.83,183.284 "/> <linearGradient id="SVGID_23_" gradientUnits="userSpaceOnUse" x1="181.2775" y1="205.0867" x2="186.6575" y2="210.4667"> <stop offset="0" style="stop-color:#CCCCCC"/> <stop offset="0.1098" style="stop-color:#C8C8C8"/> <stop offset="0.2249" style="stop-color:#BBBBBB"/> <stop offset="0.3425" style="stop-color:#A6A6A6"/> <stop offset="0.461" style="stop-color:#898989"/> <stop offset="0.5347" style="stop-color:#737373"/> <stop offset="0.6161" style="stop-color:#6F6F6F"/> <stop offset="0.7045" style="stop-color:#626262"/> <stop offset="0.7963" style="stop-color:#4C4C4C"/> <stop offset="0.8904" style="stop-color:#2D2D2D"/> <stop offset="0.9854" style="stop-color:#070707"/> <stop offset="1" style="stop-color:#000000"/> </linearGradient> <polygon style="fill:url(#SVGID_23_);" points="190.34,206.784 182.96,214.134 177.6,208.764 184.96,201.414 "/> <linearGradient id="SVGID_24_" gradientUnits="userSpaceOnUse" x1="141.01" y1="211.9292" x2="189.29" y2="211.9292"> <stop offset="0" style="stop-color:#CCCCCC"/> <stop offset="0.1335" style="stop-color:#C8C8C8"/> <stop offset="0.2735" style="stop-color:#BBBBBB"/> <stop offset="0.4166" style="stop-color:#A6A6A6"/> <stop offset="0.5618" style="stop-color:#898989"/> <stop offset="0.7086" style="stop-color:#636363"/> <stop offset="0.8545" style="stop-color:#353535"/> <stop offset="1" style="stop-color:#000000"/> </linearGradient> <path style="fill:url(#SVGID_24_);" d="M164.11,206.564l25.18,25.24c-0.97,1.56-1.66,3.26-2.07,5.05l-46.21-46.3l3.56-3.55 l12.48,12.48l7.07,7.08H164.11z"/> <linearGradient id="SVGID_25_" gradientUnits="userSpaceOnUse" x1="134.83" y1="231.6542" x2="192.44" y2="231.6542"> <stop offset="0" style="stop-color:#CCCCCC"/> <stop offset="0.1335" style="stop-color:#C8C8C8"/> <stop offset="0.2735" style="stop-color:#BBBBBB"/> <stop offset="0.4166" style="stop-color:#A6A6A6"/> <stop offset="0.5618" style="stop-color:#898989"/> <stop offset="0.7086" style="stop-color:#636363"/> <stop offset="0.8545" style="stop-color:#353535"/> <stop offset="1" style="stop-color:#000000"/> </linearGradient> <polygon style="fill:url(#SVGID_25_);" points="141.93,202.794 192.44,253.444 185.35,260.514 134.83,209.874 "/> <linearGradient id="SVGID_26_" gradientUnits="userSpaceOnUse" x1="147.5099" y1="265.6441" x2="154.63" y2="272.7642"> <stop offset="0" style="stop-color:#CCCCCC"/> <stop offset="0.1098" style="stop-color:#C8C8C8"/> <stop offset="0.2249" style="stop-color:#BBBBBB"/> <stop offset="0.3425" style="stop-color:#A6A6A6"/> <stop offset="0.461" style="stop-color:#898989"/> <stop offset="0.5347" style="stop-color:#737373"/> <stop offset="0.6161" style="stop-color:#6F6F6F"/> <stop offset="0.7045" style="stop-color:#626262"/> <stop offset="0.7963" style="stop-color:#4C4C4C"/> <stop offset="0.8904" style="stop-color:#2D2D2D"/> <stop offset="0.9854" style="stop-color:#070707"/> <stop offset="1" style="stop-color:#000000"/> </linearGradient> <path style="fill:url(#SVGID_26_);" d="M163.39,249.834l7.08,7.09l-28.18,28.11c-1.96,1.95-5.14,1.95-7.09-0.01 c-0.94-0.95-1.46-2.2-1.46-3.55c0-1.33,0.52-2.59,1.47-3.53L163.39,249.834z"/> <linearGradient id="SVGID_27_" gradientUnits="userSpaceOnUse" x1="120.745" y1="238.8092" x2="127.865" y2="245.9292"> <stop offset="0" style="stop-color:#CCCCCC"/> <stop offset="0.1098" style="stop-color:#C8C8C8"/> <stop offset="0.2249" style="stop-color:#BBBBBB"/> <stop offset="0.3425" style="stop-color:#A6A6A6"/> <stop offset="0.461" style="stop-color:#898989"/> <stop offset="0.5347" style="stop-color:#737373"/> <stop offset="0.6161" style="stop-color:#6F6F6F"/> <stop offset="0.7045" style="stop-color:#626262"/> <stop offset="0.7963" style="stop-color:#4C4C4C"/> <stop offset="0.8904" style="stop-color:#2D2D2D"/> <stop offset="0.9854" style="stop-color:#070707"/> <stop offset="1" style="stop-color:#000000"/> </linearGradient> <path style="fill:url(#SVGID_27_);" d="M136.63,223.004l7.07,7.09l-28.18,28.11c-1.95,1.95-5.13,1.94-7.08-0.01 c-0.95-0.95-1.47-2.21-1.46-3.55c0-1.34,0.52-2.59,1.47-3.54L136.63,223.004z"/> <linearGradient id="SVGID_28_" gradientUnits="userSpaceOnUse" x1="156.9225" y1="288.9217" x2="106.2975" y2="238.2966"> <stop offset="0" style="stop-color:#CCCCCC"/> <stop offset="0.0523" style="stop-color:#C8C8C8"/> <stop offset="0.1071" style="stop-color:#BBBBBB"/> <stop offset="0.163" style="stop-color:#A6A6A6"/> <stop offset="0.2194" style="stop-color:#898989"/> <stop offset="0.2545" style="stop-color:#737373"/> <stop offset="0.3489" style="stop-color:#777777"/> <stop offset="0.4514" style="stop-color:#848484"/> <stop offset="0.5578" style="stop-color:#9A9A9A"/> <stop offset="0.6662" style="stop-color:#B8B8B8"/> <stop offset="0.7047" style="stop-color:#C5C5C5"/> <stop offset="0.7413" style="stop-color:#C0C0C0"/> <stop offset="0.7835" style="stop-color:#B2B2B2"/> <stop offset="0.8285" style="stop-color:#9B9B9B"/> <stop offset="0.8755" style="stop-color:#7B7B7B"/> <stop offset="0.924" style="stop-color:#515151"/> <stop offset="0.9731" style="stop-color:#1F1F1F"/> <stop offset="1" style="stop-color:#000000"/> </linearGradient> <path style="fill:url(#SVGID_28_);" d="M91.53,253.064l37.64-37.54l1.81,1.81l-28.18,28.11c-2.47,2.46-3.83,5.73-3.82,9.19 c-0.01,3.47,1.33,6.74,3.79,9.21c2.54,2.54,5.88,3.81,9.21,3.81c3.33,0,6.66-1.26,9.19-3.79l28.18-28.11l8.39,8.42l-28.18,28.1 c-2.46,2.46-3.82,5.73-3.82,9.19c-0.01,3.48,1.34,6.75,3.8,9.21c2.53,2.55,5.87,3.82,9.21,3.82c3.32,0,6.65-1.27,9.19-3.79 l28.18-28.11l3.56,3.57l-37.64,37.54c-2.76,2.76-5.9,5-9.29,6.69l-47.92-48.05C86.51,258.994,88.73,255.854,91.53,253.064z"/> <radialGradient id="SVGID_29_" cx="102.7176" cy="292.4342" r="21.6962" gradientTransform="matrix(-0.7071 0.7071 -2.1213 -2.1213 795.6965 840.1484)" gradientUnits="userSpaceOnUse"> <stop offset="0" style="stop-color:#B3B3B3"/> <stop offset="1" style="stop-color:#000000"/> </radialGradient> <path style="fill:url(#SVGID_29_);" d="M81.87,270.714l42.52,42.62c-2.47,0.54-5.02,0.82-7.6,0.82c-0.02,0-0.04,0-0.05,0 c-9.55-0.01-18.53-3.75-25.28-10.51C82.55,294.714,79.37,282.204,81.87,270.714z"/> <linearGradient id="SVGID_30_" gradientUnits="userSpaceOnUse" x1="8" y1="310.5642" x2="47.9205" y2="310.5642"> <stop offset="0" style="stop-color:#CCCCCC"/> <stop offset="0.1098" style="stop-color:#C8C8C8"/> <stop offset="0.2249" style="stop-color:#BBBBBB"/> <stop offset="0.3425" style="stop-color:#A6A6A6"/> <stop offset="0.461" style="stop-color:#898989"/> <stop offset="0.5347" style="stop-color:#737373"/> <stop offset="0.6161" style="stop-color:#6F6F6F"/> <stop offset="0.7045" style="stop-color:#626262"/> <stop offset="0.7963" style="stop-color:#4C4C4C"/> <stop offset="0.8904" style="stop-color:#2D2D2D"/> <stop offset="0.9854" style="stop-color:#070707"/> <stop offset="1" style="stop-color:#000000"/> </linearGradient> <path style="fill:url(#SVGID_30_);" d="M8.19,316.884l9.44-9.43c0.39-0.38,0.94-0.59,1.55-0.59c8.25-0.01,16.34-3.09,22.74-8.65 l0.18-0.15c1.4-1.19,2.93-2.14,4.59-2.86c2.83,10.49,0.73,21.9-5.8,30.72c-1.51-1.51-2.75-3.23-3.66-5.14 c-1.84-3.83-4.93-6.72-8.73-8.15l-0.37-0.14c-6.03-2.27-12.87-0.8-17.44,3.75l-1.41,1.41c-0.18,0.18-0.45,0.27-0.72,0.28 c-0.12,0-0.28-0.03-0.39-0.14c-0.11-0.12-0.17-0.27-0.17-0.45S8.06,317.004,8.19,316.884z"/> <linearGradient id="SVGID_31_" gradientUnits="userSpaceOnUse" x1="75.2987" y1="328.8604" x2="83.4513" y2="328.8604"> <stop offset="0" style="stop-color:#FF8015"/> <stop offset="0.2122" style="stop-color:#db6b0f"/> <stop offset="0.4183" style="stop-color:#EF7814"/> <stop offset="0.6218" style="stop-color:#DC6E12"/> <stop offset="0.8225" style="stop-color:#C16110"/> <stop offset="1" style="stop-color:#A2510D"/> </linearGradient> <path style="fill:url(#SVGID_31_);" d="M82.26,325.984c1.59,1.59,1.59,4.18-0.01,5.76c-0.77,0.77-1.79,1.19-2.87,1.19 c-0.01,0-0.01,0-0.01,0c-1.09,0-2.11-0.42-2.88-1.19c-1.59-1.59-1.59-4.18,0.01-5.77C78.09,324.384,80.67,324.394,82.26,325.984z"/> <linearGradient id="SVGID_32_" gradientUnits="userSpaceOnUse" x1="33.5352" y1="328.1634" x2="203.16" y2="328.1634"> <stop offset="0" style="stop-color:#CCCCCC"/> <stop offset="0.0523" style="stop-color:#C8C8C8"/> <stop offset="0.1071" style="stop-color:#BBBBBB"/> <stop offset="0.163" style="stop-color:#A6A6A6"/> <stop offset="0.2194" style="stop-color:#898989"/> <stop offset="0.2545" style="stop-color:#737373"/> <stop offset="0.3489" style="stop-color:#777777"/> <stop offset="0.4514" style="stop-color:#848484"/> <stop offset="0.5578" style="stop-color:#9A9A9A"/> <stop offset="0.6662" style="stop-color:#B8B8B8"/> <stop offset="0.7047" style="stop-color:#C5C5C5"/> <stop offset="0.7413" style="stop-color:#C0C0C0"/> <stop offset="0.7835" style="stop-color:#B2B2B2"/> <stop offset="0.8285" style="stop-color:#9B9B9B"/> <stop offset="0.8755" style="stop-color:#7B7B7B"/> <stop offset="0.924" style="stop-color:#515151"/> <stop offset="0.9731" style="stop-color:#1F1F1F"/> <stop offset="1" style="stop-color:#000000"/> </linearGradient> <path style="fill:url(#SVGID_32_);" d="M122.51,410.184c-15.14-17.1-24.38-33.45-29.47-44.15c-5.45-11.47-19.01-16.92-30.88-12.42 l-0.5,0.19c-11.42,4.38-17.93,16.69-15.13,28.63c6.91,29.51,27.07,55.27,33.09,62.46c3.56,4.26,8.69,6.57,13.93,6.57 c2.28,0,4.57-0.44,6.77-1.33c7.27-2.96,14.48-8.01,21.44-15.01C128.53,428.314,128.87,417.354,122.51,410.184z M136.27,197.134 l-50.39,50.26c-17.09,17.05-17.12,44.81-0.08,61.9c8.26,8.28,19.24,12.85,30.93,12.86c0.02,0,0.04,0,0.06,0 c11.66,0,22.64-4.54,30.9-12.78l50.42-50.29l5.05,5.07l-93.36,93.36c-5.03,5.04-7.33,12.24-6.14,19.26 c0.55,3.28,1.87,6.44,3.8,9.15c8.8,12.29,16.63,22.5,23.27,30.34c6.07,7.17,5.67,17.99-0.9,24.63 c-9.62,9.7-19.86,15.99-30.43,18.67c-6.66,1.69-13.64-0.52-18.22-5.76c-34.36-39.31-44.69-85.66-47.54-103.77 c-0.43-2.71,0.48-5.49,2.43-7.43l7.02-7.01c13.72-13.68,16.79-35.08,7.47-52.05c-2.41-4.39-1.53-10.03,2.15-13.7l69.63-69.46 c0.42-0.42,0.98-0.65,1.57-0.65c0.6,0,1.15,0.24,1.57,0.66c0.75,0.75,1.77,1.17,2.83,1.17s2.08-0.42,2.83-1.17l4.2-4.19 L136.27,197.134z M87.9,337.414c4.72-4.7,4.73-12.37,0.03-17.08c-4.71-4.72-12.37-4.73-17.08-0.02c-4.72,4.7-4.73,12.36-0.03,17.08 c2.28,2.28,5.31,3.54,8.54,3.54c0.01,0,0.01,0,0.02,0C82.6,340.934,85.62,339.684,87.9,337.414z"/> <linearGradient id="SVGID_33_" gradientUnits="userSpaceOnUse" x1="86.4757" y1="443.4586" x2="86.4757" y2="360.0342"> <stop offset="0" style="stop-color:#FF8015"/> <stop offset="0.2122" style="stop-color:#db6b0f"/> <stop offset="0.4183" style="stop-color:#EF7814"/> <stop offset="0.6218" style="stop-color:#DC6E12"/> <stop offset="0.8225" style="stop-color:#C16110"/> <stop offset="1" style="stop-color:#A2510D"/> </linearGradient> <path style="fill:url(#SVGID_33_);" d="M116.52,415.484c3.56,4.02,3.37,10.17-0.44,14c-6.11,6.15-12.6,10.72-18.78,13.24 c-4.04,1.65-8.69,0.46-11.55-2.97c-5.73-6.85-24.93-31.35-31.43-59.14c-1.89-8.07,2.5-16.38,10.2-19.34l0.48-0.18 c1.9-0.72,3.86-1.06,5.8-1.06c6.23,0,12.21,3.54,15.02,9.43C91.12,380.634,100.76,397.694,116.52,415.484z"/> <path d="M486.97,317.334c0.01,2.2-0.81,4.29-2.3,5.89c-1.57,1.7-3.74,2.66-6.1,2.71c-2.43,0.03-4.81-0.9-6.53-2.61l-1.41-1.41 c-2.35-2.34-5.86-3.1-8.97-1.93l-0.38,0.14c-1.84,0.69-3.38,2.15-4.32,4.11c-1.37,2.86-3.21,5.42-5.48,7.64l5.08,5.06 c3.75,3.75,5.5,9.11,4.68,14.35c-2.96,18.79-13.69,66.91-49.42,107.79c-5.11,5.84-12.31,9.05-19.76,9.05 c-2.15,0-4.31-0.26-6.46-0.81c-11.99-3.04-23.48-10.04-34.14-20.79c-9.47-9.57-10.04-25.13-1.32-35.43 c6.41-7.56,14.32-17.88,22.86-29.82c1.24-1.73,2.08-3.75,2.43-5.84c0.19-1.12,0.24-2.24,0.16-3.35l-3.44,1.85 c-6.33,3.42-13.16,5.09-19.91,5.09c-10.02,0-19.9-3.69-27.83-10.84c-13.27-11.96-17.44-30.37-10.63-46.89l4.63-11.23l-42.84-42.84 c-1.32-1.32-1.55-3.38-0.56-4.96l0.82-1.3c0.16-0.25,13.97-14.14,13.97-14.14c1.55-1.68,2.4-3.83,2.4-6.11 c0-2.42-0.95-4.69-2.66-6.4c-0.75-0.75-1.18-1.77-1.18-2.83s0.42-2.08,1.17-2.83l0.93-0.93l-38.86-38.77 c-1.57-1.56-1.57-4.09-0.01-5.65l7.9-7.92c0.75-0.75,1.76-1.18,2.82-1.18c0.01,0,0.01,0,0.01,0c1.06,0,2.07,0.42,2.82,1.17 l25.84,25.77l5.37-5.38l-52.86-52.72l-52.86,52.72l5.37,5.37l25.83-25.76c1.56-1.56,4.1-1.56,5.66,0.01l7.89,7.92 c0.75,0.75,1.17,1.76,1.17,2.83c0,1.06-0.42,2.07-1.17,2.82l-38.87,38.77l0.93,0.93c1.56,1.56,1.56,4.1,0,5.66 c-1.72,1.71-2.66,3.98-2.66,6.4c-0.01,2.28,0.85,4.44,2.39,6.11c0,0,13.81,13.89,13.97,14.14l0.82,1.3c1,1.58,0.77,3.64-0.55,4.96 l-42.85,42.84l4.63,11.23c6.82,16.52,2.64,34.93-10.62,46.89c-7.93,7.15-17.81,10.84-27.84,10.84c-6.75,0-13.57-1.67-19.9-5.08 l-3.44-1.86c-0.09,1.11-0.04,2.23,0.15,3.35c0.36,2.09,1.2,4.11,2.43,5.84c8.55,11.94,16.45,22.25,22.86,29.82 c8.73,10.3,8.15,25.86-1.32,35.43c-10.66,10.75-22.14,17.75-34.14,20.79c-2.14,0.55-4.31,0.81-6.45,0.81 c-7.45,0-14.65-3.21-19.77-9.05c-35.72-40.88-46.46-89-49.41-107.79c-0.83-5.24,0.92-10.6,4.68-14.35l5.08-5.06 c-2.28-2.22-4.12-4.78-5.49-7.64c-0.94-1.96-2.47-3.42-4.32-4.11l-0.37-0.14c-3.11-1.17-6.63-0.41-8.98,1.93l-1.41,1.41 c-1.71,1.71-4.1,2.64-6.52,2.61c-2.37-0.05-4.54-1.01-6.11-2.71c-1.49-1.6-2.3-3.69-2.3-5.89c0-2.31,0.9-4.49,2.54-6.12l9.45-9.42 c1.89-1.89,4.44-2.93,7.17-2.93c6.34-0.01,12.57-2.39,17.53-6.7l0.21-0.18c2.05-1.75,4.37-3.17,6.84-4.22 c-0.06-0.12-0.12-0.24-0.19-0.36c-4.12-7.5-2.68-17.05,3.51-23.23l69.63-69.45c1.93-1.93,4.5-2.99,7.22-2.99c0,0,0.01,0,0.02,0 c1.33,0.01,2.62,0.26,3.82,0.75l14.02-13.99c0.76-0.76,1.79-1.2,2.88-1.16c1.07,0.01,2.1,0.46,2.84,1.24l0.64,0.68l5.7,5.69 l65.83-65.67l-73.49-73.3c-0.75-0.75-1.17-1.76-1.18-2.82c0-1.07,0.42-2.08,1.17-2.83l18.12-18.16c1.56-1.57,4.09-1.57,5.65-0.01 l7.43,7.4l9.54-9.54c0.98-0.98,2.4-1.38,3.76-1.06c1.35,0.33,2.44,1.33,2.87,2.65l11.64,35.7l38.32,38.21l38.31-38.21l11.65-35.7 c0.43-1.32,1.51-2.32,2.87-2.65c1.35-0.32,2.77,0.08,3.76,1.06l9.54,9.55l7.42-7.41c1.56-1.56,4.1-1.55,5.66,0.01l18.11,18.16 c1.56,1.57,1.55,4.1-0.01,5.66l-73.49,73.29l65.83,65.66l6.34-6.36c0.74-0.78,1.77-1.23,2.85-1.24c1.07-0.05,2.11,0.4,2.88,1.16 l14.02,13.99c1.19-0.49,2.49-0.74,3.82-0.75h0.01c2.73,0,5.29,1.06,7.22,2.99l69.63,69.45c6.19,6.18,7.63,15.72,3.51,23.23 c-0.06,0.12-0.12,0.24-0.19,0.36c2.48,1.05,4.79,2.47,6.83,4.21l0.2,0.17c4.99,4.33,11.21,6.71,17.55,6.72 c2.74,0,5.29,1.04,7.18,2.93l9.44,9.42C486.07,312.844,486.97,315.024,486.97,317.334z M478.8,317.794 c0.12-0.12,0.17-0.27,0.17-0.45s-0.06-0.34-0.19-0.46l-9.44-9.43c-0.39-0.38-0.93-0.59-1.54-0.59c-8.26-0.01-16.35-3.09-22.76-8.66 l-0.17-0.15c-1.4-1.18-2.93-2.13-4.58-2.85c-2.84,10.49-0.73,21.9,5.8,30.73c1.5-1.52,2.74-3.24,3.66-5.15 c1.83-3.83,4.93-6.72,8.72-8.15l0.37-0.14c6.03-2.27,12.88-0.8,17.44,3.75l1.41,1.41c0.18,0.18,0.45,0.29,0.72,0.28 C478.53,317.934,478.7,317.904,478.8,317.794z M453.33,350.034c0.43-2.71-0.48-5.49-2.42-7.43l-7.03-7.01 c-13.72-13.68-16.79-35.08-7.47-52.05c2.42-4.39,1.53-10.03-2.15-13.7l-69.63-69.46c-0.42-0.42-0.97-0.65-1.57-0.65 c-0.59,0-1.15,0.24-1.57,0.66c-0.75,0.75-1.76,1.17-2.83,1.17c-1.06,0-2.08-0.42-2.83-1.17l-4.2-4.19l-0.93,0.93l50.39,50.26 c17.09,17.05,17.13,44.81,0.08,61.9c-8.25,8.28-19.24,12.85-30.93,12.86c-0.01,0-0.03,0-0.05,0c-11.67,0-22.64-4.54-30.91-12.78 l-50.41-50.29l-5.06,5.07l93.36,93.36c5.04,5.04,7.34,12.23,6.15,19.26c-0.56,3.28-1.87,6.44-3.81,9.15 c-8.8,12.29-16.62,22.5-23.26,30.34c-6.07,7.17-5.68,17.99,0.9,24.63c9.61,9.7,19.85,15.99,30.42,18.67 c6.66,1.69,13.64-0.52,18.23-5.76C440.15,414.494,450.49,368.144,453.33,350.034z M395.51,303.644c8.91-8.93,12.1-21.44,9.59-32.93 l-42.51,42.61c2.49,0.54,5.04,0.83,7.65,0.83C379.79,314.144,388.76,310.414,395.51,303.644z M354.22,310.394l47.93-48.05 c-1.68-3.35-3.91-6.49-6.71-9.28l-37.64-37.54l-1.81,1.81l28.19,28.11c2.46,2.46,3.82,5.73,3.82,9.2c0.01,3.46-1.34,6.73-3.8,9.2 c-2.45,2.46-5.72,3.82-9.19,3.82c-0.01,0-0.02,0-0.02,0c-3.47,0-6.73-1.35-9.19-3.8l-28.18-28.11l-8.39,8.42l28.18,28.1 c2.47,2.46,3.82,5.73,3.82,9.21c0.01,3.46-1.34,6.73-3.79,9.19c-2.54,2.55-5.88,3.82-9.22,3.82c-3.32,0-6.65-1.26-9.18-3.79 l-28.18-28.11l-3.57,3.57l37.64,37.54C347.7,306.464,350.83,308.704,354.22,310.394z M380,254.654c0-1.35-0.52-2.6-1.47-3.55 l-28.18-28.11l-7.08,7.1l28.18,28.11c0.95,0.94,2.2,1.46,3.54,1.46c0,0,0,0,0.01,0c1.33,0,2.59-0.52,3.54-1.47 C379.48,257.244,380,255.984,380,254.654z M368.35,366.894l4.36-2.35c-0.37-0.48-0.76-0.94-1.19-1.37l-16.29-16.29 c-1.34,4.62-4.27,8.54-8.39,11.11c-3.15,1.97-6.7,2.98-10.31,2.98c-1.55,0-3.11-0.19-4.66-0.56c-1.02-0.25-1.86-0.88-2.4-1.7 c-0.58-0.89-0.81-2.02-0.54-3.13c0.52-2.15,2.68-3.47,4.83-2.95c3.04,0.74,6.19,0.24,8.84-1.42c2.66-1.66,4.49-4.26,5.16-7.32 l0.81-3.67l-24.03-24.03l-3.36,8.15c-5.94,14.4-1.29,27.05,5.81,35.09c0.89,1.01,1.83,1.95,2.78,2.81 C338.3,369.944,352.92,375.214,368.35,366.894z M351.77,285.024c0.95-0.95,1.47-2.2,1.46-3.53c0-1.35-0.52-2.61-1.47-3.55 l-28.18-28.11l-7.07,7.09l28.18,28.11c0.94,0.95,2.2,1.47,3.53,1.47c0.01,0,0.01,0,0.01,0 C349.57,286.494,350.83,285.974,351.77,285.024z M301.63,260.514l50.51-50.64l-7.09-7.08l-50.52,50.65L301.63,260.514z M299.75,236.854l46.22-46.3l-3.57-3.55l-12.48,12.48l-7.06,7.08l-25.17,25.24C298.65,233.364,299.34,235.064,299.75,236.854z M332.32,43.144l-12.46-12.5l-70.71,70.52l12.5,12.47L332.32,43.144z M315.02,203.094l12.46-12.5l-7.33-7.31l-12.48,12.48 L315.02,203.094z M302.01,190.114l12.48-12.48L167.11,30.644l-12.46,12.49L302.01,190.114z M304.01,214.134l5.37-5.38l-7.37-7.34 l-5.37,5.38L304.01,214.134z M303.95,35.214l-4.92-4.93l-4.76,14.58L303.95,35.214z M294.89,220.834l2.24-2.25l-6.15-6.14 l-2.25,2.25L294.89,220.834z M283.07,209.044l2.25-2.25l-22.99-22.93l-2.25,2.25L283.07,209.044z M184.97,190.104l52.86-52.71 l-12.5-12.47l-52.84,52.71L184.97,190.104z M203.91,209.044l22.99-22.93l-2.25-2.25l-22.99,22.93L203.91,209.044z M203.16,264.154 l-5.05-5.07l-50.42,50.29c-8.26,8.24-19.24,12.78-30.9,12.78c-0.02,0-0.04,0-0.06,0c-11.69-0.01-22.67-4.58-30.93-12.86 c-17.04-17.09-17.01-44.85,0.08-61.9l50.39-50.26l-0.93-0.93l-4.2,4.19c-0.75,0.75-1.77,1.17-2.83,1.17s-2.08-0.42-2.83-1.17 c-0.42-0.42-0.97-0.66-1.57-0.66c-0.59,0-1.15,0.23-1.57,0.65l-69.63,69.46c-3.68,3.67-4.56,9.31-2.15,13.7 c9.32,16.97,6.25,38.37-7.47,52.05l-7.02,7.01c-1.95,1.94-2.86,4.72-2.43,7.43c2.85,18.11,13.18,64.46,47.54,103.77 c4.58,5.24,11.56,7.45,18.22,5.76c10.57-2.68,20.81-8.97,30.43-18.67c6.57-6.64,6.97-17.46,0.9-24.63 c-6.64-7.84-14.47-18.05-23.27-30.34c-1.93-2.71-3.25-5.87-3.8-9.15c-1.19-7.02,1.11-14.22,6.14-19.26L203.16,264.154z M192.09,220.834l6.15-6.14l-2.25-2.25l-6.15,6.14L192.09,220.834z M192.7,44.864l-4.76-14.58l-4.92,4.92L192.7,44.864z M192.44,253.444l-50.51-50.65l-7.1,7.08l50.52,50.64L192.44,253.444z M182.96,214.134l7.38-7.35l-5.38-5.37l-7.36,7.35 L182.96,214.134z M189.29,231.804l-25.18-25.24h0.01l-7.07-7.08l-12.48-12.48l-3.56,3.55l46.21,46.3 C187.63,235.064,188.32,233.364,189.29,231.804z M179.68,266.164l-3.56-3.57l-28.18,28.11c-2.54,2.52-5.87,3.79-9.19,3.79 c-3.34,0-6.68-1.27-9.21-3.82c-2.46-2.46-3.81-5.73-3.8-9.21c0-3.46,1.36-6.73,3.82-9.19l28.18-28.1l-8.39-8.42l-28.18,28.11 c-2.53,2.53-5.86,3.79-9.19,3.79c-3.33,0-6.67-1.27-9.21-3.81c-2.46-2.47-3.8-5.74-3.79-9.21c-0.01-3.46,1.35-6.73,3.82-9.19 l28.18-28.11l-1.81-1.81l-37.64,37.54c-2.8,2.79-5.02,5.93-6.7,9.28l47.92,48.05c3.39-1.69,6.53-3.93,9.29-6.69L179.68,266.164z M171.95,203.094l7.36-7.34l-12.48-12.47l-7.34,7.32l2.81,2.82l0.41,0.4L171.95,203.094z M170.47,256.924l-7.08-7.09l-28.18,28.11 c-0.95,0.94-1.47,2.2-1.47,3.53c0,1.35,0.52,2.6,1.46,3.55c1.95,1.96,5.13,1.96,7.09,0.01L170.47,256.924z M157.21,362.244 c8.53-7.7,15.27-21.69,8.59-37.9l-3.36-8.15l-24.03,24.03l0.8,3.67c0.67,3.06,2.5,5.66,5.16,7.32c2.66,1.66,5.8,2.16,8.84,1.42 c2.15-0.52,4.31,0.8,4.83,2.95c0.53,2.14-0.79,4.31-2.94,4.83c-1.55,0.37-3.11,0.56-4.66,0.56c-3.61,0-7.16-1.01-10.31-2.98 c-4.12-2.57-7.05-6.49-8.39-11.11l-16.28,16.29c-0.43,0.43-0.83,0.89-1.2,1.37l4.36,2.36 C134.05,375.214,148.67,369.944,157.21,362.244z M143.7,230.094l-7.07-7.09l-28.18,28.1c-0.95,0.95-1.47,2.2-1.47,3.54 c-0.01,1.34,0.51,2.6,1.46,3.55c1.95,1.95,5.13,1.96,7.08,0.01L143.7,230.094z M124.39,313.334l-42.52-42.62 c-2.5,11.49,0.68,24,9.59,32.93c6.75,6.76,15.73,10.5,25.28,10.51c0.01,0,0.03,0,0.05,0 C119.37,314.154,121.92,313.874,124.39,313.334z M40.89,325.924c6.53-8.82,8.63-20.23,5.8-30.72c-1.66,0.72-3.19,1.67-4.59,2.86 l-0.18,0.15c-6.4,5.56-14.49,8.64-22.74,8.65c-0.61,0-1.16,0.21-1.55,0.59l-9.44,9.43c-0.13,0.12-0.19,0.28-0.19,0.46 s0.06,0.33,0.17,0.45c0.11,0.11,0.27,0.14,0.39,0.14c0.27-0.01,0.54-0.1,0.72-0.28l1.41-1.41c4.57-4.55,11.41-6.02,17.44-3.75 l0.37,0.14c3.8,1.43,6.89,4.32,8.73,8.15C38.14,322.694,39.38,324.414,40.89,325.924z"/> <path d="M425.32,353.814c11.42,4.37,17.92,16.68,15.12,28.62c-6.9,29.51-27.07,55.27-33.08,62.46c-3.56,4.25-8.69,6.57-13.94,6.57 c-2.27,0-4.57-0.44-6.77-1.33c-3.63-1.48-7.25-3.48-10.83-5.99c-3.58-2.51-7.13-5.52-10.6-9.02c-6.78-6.81-7.11-17.77-0.76-24.94 c15.15-17.1,24.39-33.45,29.47-44.15c5.45-11.47,19.02-16.92,30.88-12.42L425.32,353.814z M432.66,380.614 c1.88-8.07-2.5-16.38-10.21-19.33l-0.49-0.19c-7.99-3.04-17.13,0.64-20.8,8.37c-5.31,11.17-14.94,28.23-30.71,46.02 c-1.7,1.92-2.55,4.34-2.55,6.75c0,2.63,1,5.25,2.99,7.25c6.11,6.14,12.6,10.72,18.78,13.24c4.05,1.65,8.69,0.46,11.55-2.97 C406.95,432.904,426.15,408.404,432.66,380.614z"/> <path d="M416.13,320.314c4.71,4.7,4.72,12.36,0.02,17.08c-2.28,2.28-5.31,3.54-8.54,3.54h-0.01c-3.22,0-6.25-1.25-8.53-3.52 c-2.28-2.28-3.54-5.31-3.55-8.54c0-3.22,1.25-6.26,3.53-8.54c2.27-2.29,5.31-3.55,8.53-3.55c0.01,0,0.01,0,0.02,0 C410.82,316.784,413.85,318.034,416.13,320.314z M410.49,331.744c1.58-1.59,1.58-4.18-0.01-5.77c-0.77-0.77-1.79-1.19-2.88-1.19 h-0.01c-1.09,0-2.11,0.43-2.88,1.2c-0.77,0.77-1.19,1.79-1.19,2.88s0.43,2.12,1.2,2.88c0.77,0.77,1.79,1.19,2.88,1.19 S409.72,332.514,410.49,331.744z"/> <path d="M392.1,101.324c0.47,1.45,0.07,3.04-1.02,4.1l-11.64,11.35l2.75,16.03c0.25,1.5-0.36,3.02-1.59,3.92 c-0.7,0.5-1.53,0.76-2.36,0.76c-0.63,0-1.27-0.15-1.86-0.46l-14.39-7.57l-14.4,7.57c-1.35,0.71-2.98,0.59-4.21-0.3 c-1.23-0.9-1.85-2.42-1.59-3.92l2.75-16.03l-11.65-11.35c-1.09-1.06-1.48-2.65-1.01-4.1s1.72-2.5,3.23-2.72l16.09-2.34l7.2-14.59 c0.67-1.36,2.06-2.23,3.59-2.23c1.52,0,2.91,0.87,3.58,2.23l7.2,14.59l16.1,2.34C390.37,98.824,391.63,99.874,392.1,101.324z M372.35,112.514l7.35-7.16l-10.16-1.48c-1.3-0.19-2.43-1-3.01-2.18l-4.54-9.21l-4.54,9.21c-0.59,1.18-1.71,1.99-3.02,2.18 l-10.15,1.48l7.35,7.16c0.94,0.92,1.37,2.25,1.15,3.54l-1.74,10.12l9.09-4.78c0.58-0.3,1.22-0.46,1.86-0.46 c0.64,0,1.28,0.16,1.86,0.46l9.08,4.78l-1.73-10.12C370.97,114.764,371.41,113.434,372.35,112.514z"/> <path d="M155.1,101.324c0.47,1.45,0.07,3.04-1.02,4.1l-11.64,11.35l2.75,16.03c0.25,1.5-0.36,3.02-1.6,3.92 c-0.69,0.5-1.52,0.76-2.35,0.76c-0.63,0-1.27-0.15-1.86-0.46l-14.39-7.57l-14.4,7.57c-1.35,0.71-2.98,0.59-4.21-0.3 c-1.23-0.9-1.85-2.42-1.59-3.92l2.75-16.03l-11.65-11.35c-1.09-1.06-1.48-2.65-1.01-4.1c0.47-1.45,1.72-2.5,3.23-2.72l16.09-2.34 l7.2-14.59c0.67-1.36,2.06-2.23,3.59-2.23c1.52,0,2.91,0.87,3.58,2.23l7.2,14.59l16.1,2.34 C153.37,98.824,154.63,99.874,155.1,101.324z M135.35,112.514l7.35-7.16l-10.16-1.48c-1.3-0.19-2.43-1-3.01-2.18l-4.54-9.21 l-4.54,9.21c-0.59,1.18-1.71,1.99-3.02,2.18l-10.15,1.48l7.35,7.16c0.94,0.92,1.37,2.25,1.15,3.54l-1.74,10.12l9.09-4.78 c0.58-0.3,1.22-0.46,1.86-0.46s1.28,0.16,1.86,0.46l9.08,4.78l-1.73-10.12C133.97,114.764,134.4,113.434,135.35,112.514z"/> <path d="M122.51,410.184c6.36,7.17,6.02,18.13-0.75,24.94c-6.96,7-14.17,12.05-21.44,15.01c-2.2,0.89-4.49,1.33-6.77,1.33 c-5.24,0-10.37-2.31-13.93-6.57c-6.02-7.19-26.18-32.95-33.09-62.46c-2.8-11.94,3.71-24.25,15.13-28.63l0.5-0.19 c11.87-4.5,25.43,0.95,30.88,12.42C98.13,376.734,107.37,393.084,122.51,410.184z M116.08,429.484c3.81-3.83,4-9.98,0.44-14 c-15.76-17.79-25.4-34.85-30.7-46.02c-2.81-5.89-8.79-9.43-15.02-9.43c-1.94,0-3.9,0.34-5.8,1.06l-0.48,0.18 c-7.7,2.96-12.09,11.27-10.2,19.34c6.5,27.79,25.7,52.29,31.43,59.14c2.86,3.43,7.51,4.62,11.55,2.97 C103.48,440.204,109.97,435.634,116.08,429.484z"/> <path d="M87.93,320.334c4.7,4.71,4.69,12.38-0.03,17.08c-2.28,2.27-5.3,3.52-8.52,3.52c-0.01,0-0.01,0-0.02,0 c-3.23,0-6.26-1.26-8.54-3.54c-4.7-4.72-4.69-12.38,0.03-17.08C75.56,315.604,83.22,315.614,87.93,320.334z M82.25,331.744 c1.6-1.58,1.6-4.17,0.01-5.76c-1.59-1.59-4.17-1.6-5.76-0.01c-1.6,1.59-1.6,4.18-0.01,5.77c0.77,0.77,1.79,1.19,2.88,1.19 c0,0,0,0,0.01,0C80.46,332.934,81.48,332.514,82.25,331.744z"/> </g> </g>
</svg>